Roman_opsz7.ufo
<glyph name="percent" format="2">
  <advance width="938"/>
  <unicode hex="0025"/>
  <outline>
    <contour>
      <point x="867" y="145" type="curve" smooth="yes"/>
      <point x="867" y="260"/>
      <point x="802" y="347"/>
      <point x="722" y="347" type="curve" smooth="yes"/>
      <point x="639" y="347"/>
      <point x="561" y="263"/>
      <point x="561" y="146" type="curve" smooth="yes"/>
      <point x="561" y="25"/>
      <point x="641" y="-56"/>
      <point x="722" y="-56" type="curve" smooth="yes"/>
      <point x="803" y="-56"/>
      <point x="867" y="33"/>
    </contour>
    <contour>
      <point x="724" y="-28" type="curve" smooth="yes"/>
      <point x="706" y="-28"/>
      <point x="632" y="-21"/>
      <point x="632" y="145" type="curve" smooth="yes"/>
      <point x="632" y="313"/>
      <point x="707" y="319"/>
      <point x="724" y="319" type="curve" smooth="yes"/>
      <point x="779" y="319"/>
      <point x="833" y="247"/>
      <point x="833" y="146" type="curve" smooth="yes"/>
      <point x="833" y="42"/>
      <point x="778" y="-28"/>
    </contour>
    <contour>
      <point x="765" y="703" type="line" smooth="yes"/>
      <point x="775" y="716"/>
      <point x="775" y="722"/>
      <point x="775" y="725" type="curve" smooth="yes"/>
      <point x="775" y="742"/>
      <point x="761" y="750"/>
      <point x="751" y="750" type="curve" smooth="yes"/>
      <point x="748" y="750"/>
      <point x="739" y="750"/>
      <point x="730" y="740" type="curve"/>
      <point x="708" y="712"/>
      <point x="648" y="639"/>
      <point x="521" y="639" type="curve" smooth="yes"/>
      <point x="449" y="639"/>
      <point x="378" y="662"/>
      <point x="307" y="720" type="curve" smooth="yes"/>
      <point x="282" y="741"/>
      <point x="260" y="750"/>
      <point x="231" y="750" type="curve" smooth="yes"/>
      <point x="148" y="750"/>
      <point x="70" y="666"/>
      <point x="70" y="549" type="curve" smooth="yes"/>
      <point x="70" y="428"/>
      <point x="150" y="347"/>
      <point x="231" y="347" type="curve" smooth="yes"/>
      <point x="312" y="347"/>
      <point x="376" y="436"/>
      <point x="376" y="548" type="curve" smooth="yes"/>
      <point x="376" y="568"/>
      <point x="374" y="609"/>
      <point x="356" y="653" type="curve"/>
      <point x="417" y="621"/>
      <point x="472" y="611"/>
      <point x="522" y="611" type="curve" smooth="yes"/>
      <point x="569" y="611"/>
      <point x="614" y="621"/>
      <point x="655" y="641" type="curve"/>
      <point x="656" y="640" type="line"/>
      <point x="173" y="-9" type="line" smooth="yes"/>
      <point x="165" y="-20"/>
      <point x="162" y="-23"/>
      <point x="162" y="-31" type="curve" smooth="yes"/>
      <point x="162" y="-46"/>
      <point x="173" y="-56"/>
      <point x="187" y="-56" type="curve" smooth="yes"/>
      <point x="199" y="-56"/>
      <point x="205" y="-48"/>
      <point x="211" y="-40" type="curve" smooth="yes"/>
    </contour>
    <contour>
      <point x="233" y="375" type="curve" smooth="yes"/>
      <point x="215" y="375"/>
      <point x="141" y="382"/>
      <point x="141" y="548" type="curve" smooth="yes"/>
      <point x="141" y="716"/>
      <point x="216" y="722"/>
      <point x="233" y="722" type="curve" smooth="yes"/>
      <point x="288" y="722"/>
      <point x="342" y="650"/>
      <point x="342" y="549" type="curve" smooth="yes"/>
      <point x="342" y="445"/>
      <point x="287" y="375"/>
    </contour>
  </outline>
</glyph>
<glyph name="parenleft" format="2">
  <advance width="446"/>
  <unicode hex="0028"/>
  <outline>
    <contour>
      <point x="355" y="750" type="curve"/>
      <point x="165" y="616"/>
      <point x="115" y="404"/>
      <point x="115" y="251" type="curve" smooth="yes"/>
      <point x="115" y="110"/>
      <point x="157" y="-109"/>
      <point x="355" y="-249" type="curve"/>
      <point x="363" y="-249"/>
      <point x="375" y="-249"/>
      <point x="375" y="-237" type="curve" smooth="yes"/>
      <point x="375" y="-231"/>
      <point x="372" y="-229"/>
      <point x="365" y="-222" type="curve"/>
      <point x="232" y="-102"/>
      <point x="183" y="68"/>
      <point x="183" y="250" type="curve" smooth="yes"/>
      <point x="183" y="520"/>
      <point x="286" y="652"/>
      <point x="368" y="726" type="curve"/>
      <point x="372" y="730"/>
      <point x="375" y="733"/>
      <point x="375" y="738" type="curve" smooth="yes"/>
      <point x="375" y="750"/>
      <point x="363" y="750"/>
    </contour>
  </outline>
</glyph>
<glyph name="parenright" format="2">
  <advance width="446"/>
  <unicode hex="0029"/>
  <outline>
    <contour>
      <point x="84" y="-249" type="curve" smooth="yes"/>
      <point x="96" y="-249"/>
      <point x="191" y="-183"/>
      <point x="257" y="-58" type="curve" smooth="yes"/>
      <point x="301" y="25"/>
      <point x="330" y="133"/>
      <point x="330" y="250" type="curve" smooth="yes"/>
      <point x="330.0" y="371.6125"/>
      <point x="298.7559375" y="551.2496875"/>
      <point x="163.12323046874997" y="688.1773574218751" type="curve" smooth="yes"/>
      <point x="141.50062499999996" y="710.00640625"/>
      <point x="117.22499999999997" y="730.75"/>
      <point x="90" y="750" type="curve"/>
      <point x="83" y="750"/>
      <point x="71" y="750"/>
      <point x="71" y="738" type="curve" smooth="yes"/>
      <point x="71" y="733"/>
      <point x="74" y="730"/>
      <point x="80" y="723" type="curve"/>
      <point x="166" y="644"/>
      <point x="262" y="509"/>
      <point x="262" y="251" type="curve" smooth="yes"/>
      <point x="262" y="42"/>
      <point x="197" y="-116"/>
      <point x="89" y="-214" type="curve" smooth="yes"/>
      <point x="72" y="-231"/>
      <point x="71" y="-232"/>
      <point x="71" y="-237" type="curve" smooth="yes"/>
      <point x="71" y="-242"/>
      <point x="74" y="-249"/>
    </contour>
  </outline>
</glyph>
<glyph name="asterisk" format="2">
  <advance width="569"/>
  <unicode hex="002A"/>
  <outline>
    <contour>
      <point x="284" y="319" type="curve" smooth="yes"/>
      <point x="296" y="319"/>
      <point x="315" y="327"/>
      <point x="315" y="349" type="curve"/>
      <point x="299" y="510" type="line"/>
      <point x="434" y="419" type="line" smooth="yes"/>
      <point x="447" y="410"/>
      <point x="452" y="410"/>
      <point x="457" y="410" type="curve" smooth="yes"/>
      <point x="476" y="410"/>
      <point x="488" y="428"/>
      <point x="488" y="442" type="curve" smooth="yes"/>
      <point x="488" y="461"/>
      <point x="477" y="466"/>
      <point x="462" y="472" type="curve" smooth="yes"/>
      <point x="315" y="534" type="line"/>
      <point x="462" y="597" type="line" smooth="yes"/>
      <point x="477" y="603"/>
      <point x="488" y="608"/>
      <point x="488" y="627" type="curve" smooth="yes"/>
      <point x="488" y="641"/>
      <point x="476" y="659"/>
      <point x="457" y="659" type="curve" smooth="yes"/>
      <point x="448" y="659"/>
      <point x="446" y="658"/>
      <point x="435" y="650" type="curve" smooth="yes"/>
      <point x="299" y="559" type="line"/>
      <point x="314" y="709" type="line" smooth="yes"/>
      <point x="316" y="727"/>
      <point x="312" y="750"/>
      <point x="284" y="750" type="curve" smooth="yes"/>
      <point x="272" y="750"/>
      <point x="251" y="742"/>
      <point x="253" y="717" type="curve" smooth="yes"/>
      <point x="269" y="559" type="line"/>
      <point x="134" y="650" type="line" smooth="yes"/>
      <point x="121" y="659"/>
      <point x="116" y="659"/>
      <point x="111" y="659" type="curve" smooth="yes"/>
      <point x="92" y="659"/>
      <point x="80" y="641"/>
      <point x="80" y="627" type="curve" smooth="yes"/>
      <point x="80" y="608"/>
      <point x="91" y="603"/>
      <point x="106" y="597" type="curve" smooth="yes"/>
      <point x="253" y="535" type="line"/>
      <point x="106" y="472" type="line" smooth="yes"/>
      <point x="91" y="466"/>
      <point x="80" y="461"/>
      <point x="80" y="442" type="curve" smooth="yes"/>
      <point x="80" y="440"/>
      <point x="80" y="410"/>
      <point x="118" y="410" type="curve"/>
      <point x="118" y="410"/>
      <point x="118" y="410"/>
      <point x="118" y="410" type="curve"/>
      <point x="269" y="510" type="line"/>
      <point x="253" y="350" type="line" smooth="yes"/>
      <point x="252" y="341"/>
      <point x="260" y="319"/>
    </contour>
  </outline>
</glyph>
<glyph name="comma" format="2">
  <advance width="323"/>
  <unicode hex="002C"/>
  <outline>
    <contour>
      <point x="203" y="16" type="curve"/>
      <point x="203" y="-12"/>
      <point x="203" y="-96"/>
      <point x="125" y="-167" type="curve" smooth="yes"/>
      <point x="121" y="-171"/>
      <point x="118" y="-174"/>
      <point x="118" y="-179" type="curve" smooth="yes"/>
      <point x="118" y="-185"/>
      <point x="125" y="-194"/>
      <point x="132" y="-194" type="curve" smooth="yes"/>
      <point x="145" y="-194"/>
      <point x="231" y="-115"/>
      <point x="231" y="6" type="curve" smooth="yes"/>
      <point x="231" y="66"/>
      <point x="208" y="115"/>
      <point x="161" y="115" type="curve" smooth="yes"/>
      <point x="126" y="115"/>
      <point x="104" y="88"/>
      <point x="104" y="57" type="curve" smooth="yes"/>
      <point x="104" y="33"/>
      <point x="120" y="0"/>
      <point x="162" y="0" type="curve" smooth="yes"/>
      <point x="187" y="0"/>
      <point x="202" y="15"/>
    </contour>
  </outline>
</glyph>
<glyph name="period" format="2">
  <advance width="323"/>
  <unicode hex="002E"/>
  <outline>
    <contour>
      <point x="219" y="57" type="curve" smooth="yes"/>
      <point x="219" y="92"/>
      <point x="191" y="115"/>
      <point x="162" y="115" type="curve" smooth="yes"/>
      <point x="127" y="115"/>
      <point x="104" y="87"/>
      <point x="104" y="58" type="curve" smooth="yes"/>
      <point x="104" y="23"/>
      <point x="132" y="0"/>
      <point x="161" y="0" type="curve" smooth="yes"/>
      <point x="196" y="0"/>
      <point x="219" y="28"/>
    </contour>
  </outline>
</glyph>
<glyph name="zero" format="2">
  <advance width="569"/>
  <unicode hex="0030"/>
  <outline>
    <contour>
      <point x="516" y="319" type="curve" smooth="yes"/>
      <point x="516" y="429"/>
      <point x="503" y="508"/>
      <point x="457" y="578" type="curve" smooth="yes"/>
      <point x="426" y="624"/>
      <point x="364" y="664"/>
      <point x="284" y="664" type="curve" smooth="yes"/>
      <point x="52" y="664"/>
      <point x="52" y="391"/>
      <point x="52" y="319" type="curve" smooth="yes"/>
      <point x="52" y="247"/>
      <point x="52" y="-20"/>
      <point x="284" y="-20" type="curve" smooth="yes"/>
      <point x="516" y="-20"/>
      <point x="516" y="247"/>
    </contour>
    <contour>
      <point x="284" y="8" type="curve" smooth="yes"/>
      <point x="238" y="8"/>
      <point x="177" y="35"/>
      <point x="157" y="117" type="curve" smooth="yes"/>
      <point x="143" y="176"/>
      <point x="143" y="258"/>
      <point x="143" y="332" type="curve" smooth="yes"/>
      <point x="143" y="405"/>
      <point x="143" y="481"/>
      <point x="158" y="536" type="curve" smooth="yes"/>
      <point x="179" y="615"/>
      <point x="243" y="636"/>
      <point x="284" y="636" type="curve" smooth="yes"/>
      <point x="338" y="636"/>
      <point x="390" y="603"/>
      <point x="408" y="545" type="curve" smooth="yes"/>
      <point x="424" y="491"/>
      <point x="425" y="419"/>
      <point x="425" y="332" type="curve" smooth="yes"/>
      <point x="425" y="258"/>
      <point x="425" y="184"/>
      <point x="412" y="121" type="curve" smooth="yes"/>
      <point x="392" y="30"/>
      <point x="324" y="8"/>
    </contour>
  </outline>
</glyph>
<glyph name="six" format="2">
  <advance width="569"/>
  <unicode hex="0036"/>
  <outline>
    <contour>
      <point x="150" y="327" type="curve"/>
      <point x="150" y="409"/>
      <point x="157" y="483"/>
      <point x="195" y="544" type="curve" smooth="yes"/>
      <point x="229" y="598"/>
      <point x="283" y="635"/>
      <point x="347" y="635" type="curve" smooth="yes"/>
      <point x="377" y="635"/>
      <point x="417" y="627"/>
      <point x="437" y="600" type="curve"/>
      <point x="412" y="598"/>
      <point x="391" y="581"/>
      <point x="391" y="552" type="curve" smooth="yes"/>
      <point x="391" y="527"/>
      <point x="408" y="505"/>
      <point x="438" y="505" type="curve" smooth="yes"/>
      <point x="468" y="505"/>
      <point x="486" y="525"/>
      <point x="486" y="554" type="curve" smooth="yes"/>
      <point x="486" y="612"/>
      <point x="444" y="664"/>
      <point x="345" y="664" type="curve" smooth="yes"/>
      <point x="201" y="664"/>
      <point x="54" y="532"/>
      <point x="54" y="317" type="curve" smooth="yes"/>
      <point x="54" y="58"/>
      <point x="176" y="-20"/>
      <point x="286" y="-20" type="curve" smooth="yes"/>
      <point x="408" y="-20"/>
      <point x="514" y="73"/>
      <point x="514" y="204" type="curve" smooth="yes"/>
      <point x="514" y="331"/>
      <point x="413" y="425"/>
      <point x="296" y="425" type="curve" smooth="yes"/>
      <point x="216" y="425"/>
      <point x="172" y="372"/>
    </contour>
    <contour>
      <point x="286" y="12" type="curve" smooth="yes"/>
      <point x="236" y="12"/>
      <point x="197" y="41"/>
      <point x="176" y="85" type="curve" smooth="yes"/>
      <point x="161" y="115"/>
      <point x="153" y="165"/>
      <point x="153" y="225" type="curve" smooth="yes"/>
      <point x="153" y="322"/>
      <point x="211" y="397"/>
      <point x="291" y="397" type="curve" smooth="yes"/>
      <point x="337" y="397"/>
      <point x="368" y="379"/>
      <point x="393" y="342" type="curve" smooth="yes"/>
      <point x="417" y="304"/>
      <point x="418" y="262"/>
      <point x="418" y="204" type="curve" smooth="yes"/>
      <point x="418" y="147"/>
      <point x="418" y="105"/>
      <point x="391" y="66" type="curve" smooth="yes"/>
      <point x="367" y="31"/>
      <point x="335" y="12"/>
    </contour>
  </outline>
</glyph>
<glyph name="eight" format="2">
  <advance width="569"/>
  <unicode hex="0038"/>
  <outline>
    <contour>
      <point x="355" y="361" type="curve"/>
      <point x="433" y="399"/>
      <point x="483" y="446"/>
      <point x="483" y="515" type="curve" smooth="yes"/>
      <point x="483" y="612"/>
      <point x="382" y="664"/>
      <point x="285" y="664" type="curve" smooth="yes"/>
      <point x="175" y="664"/>
      <point x="85" y="592"/>
      <point x="85" y="497" type="curve" smooth="yes"/>
      <point x="85" y="450"/>
      <point x="107" y="416"/>
      <point x="125" y="396" type="curve" smooth="yes"/>
      <point x="143" y="375"/>
      <point x="150" y="371"/>
      <point x="209" y="336" type="curve"/>
      <point x="153" y="312"/>
      <point x="54" y="258"/>
      <point x="54" y="153" type="curve" smooth="yes"/>
      <point x="54" y="42"/>
      <point x="169" y="-20"/>
      <point x="283" y="-20" type="curve" smooth="yes"/>
      <point x="410" y="-20"/>
      <point x="514" y="61"/>
      <point x="514" y="169" type="curve" smooth="yes"/>
      <point x="514" y="235"/>
      <point x="475" y="291"/>
      <point x="417" y="325" type="curve" smooth="yes"/>
      <point x="404" y="333"/>
      <point x="369" y="353"/>
    </contour>
    <contour>
      <point x="192" y="456" type="line" smooth="yes"/>
      <point x="166" y="471"/>
      <point x="138" y="498"/>
      <point x="138" y="535" type="curve" smooth="yes"/>
      <point x="138" y="598"/>
      <point x="211" y="635"/>
      <point x="283" y="635" type="curve" smooth="yes"/>
      <point x="361" y="635"/>
      <point x="430" y="586"/>
      <point x="430" y="515" type="curve" smooth="yes"/>
      <point x="430" y="426"/>
      <point x="326" y="381"/>
      <point x="324" y="381" type="curve" smooth="yes"/>
      <point x="322" y="381"/>
      <point x="320" y="382"/>
      <point x="313" y="386" type="curve" smooth="yes"/>
    </contour>
    <contour>
      <point x="241" y="317" type="curve"/>
      <point x="378" y="238" type="line" smooth="yes"/>
      <point x="404" y="223"/>
      <point x="454" y="193"/>
      <point x="454" y="134" type="curve" smooth="yes"/>
      <point x="454" y="59"/>
      <point x="371" y="12"/>
      <point x="285" y="12" type="curve" smooth="yes"/>
      <point x="193" y="12"/>
      <point x="114" y="71"/>
      <point x="114" y="153" type="curve" smooth="yes"/>
      <point x="114" y="227"/>
      <point x="169" y="284"/>
    </contour>
  </outline>
</glyph>
<glyph name="nine" format="2">
  <advance width="569"/>
  <unicode hex="0039"/>
  <outline>
    <contour>
      <point x="418" y="298" type="line" smooth="yes"/>
      <point x="418" y="50"/>
      <point x="295" y="12"/>
      <point x="235" y="12" type="curve" smooth="yes"/>
      <point x="213" y="12"/>
      <point x="160" y="14"/>
      <point x="133" y="45" type="curve"/>
      <point x="174" y="49"/>
      <point x="177" y="83"/>
      <point x="177" y="92" type="curve" smooth="yes"/>
      <point x="177" y="117"/>
      <point x="160" y="139"/>
      <point x="130" y="139" type="curve" smooth="yes"/>
      <point x="100" y="139"/>
      <point x="82" y="119"/>
      <point x="82" y="90" type="curve" smooth="yes"/>
      <point x="82" y="22"/>
      <point x="139" y="-20"/>
      <point x="236" y="-20" type="curve" smooth="yes"/>
      <point x="379" y="-20"/>
      <point x="514" y="115"/>
      <point x="514" y="329" type="curve" smooth="yes"/>
      <point x="514" y="577"/>
      <point x="404" y="664"/>
      <point x="287" y="664" type="curve" smooth="yes"/>
      <point x="254" y="664"/>
      <point x="185" y="659"/>
      <point x="128" y="603" type="curve" smooth="yes"/>
      <point x="94" y="570"/>
      <point x="54" y="531"/>
      <point x="54" y="441" type="curve" smooth="yes"/>
      <point x="54" y="314"/>
      <point x="155" y="220"/>
      <point x="272" y="220" type="curve" smooth="yes"/>
      <point x="352" y="220"/>
      <point x="395" y="273"/>
      <point x="418" y="318" type="curve"/>
    </contour>
    <contour>
      <point x="277" y="248" type="curve" smooth="yes"/>
      <point x="238" y="248"/>
      <point x="201" y="261"/>
      <point x="173" y="307" type="curve" smooth="yes"/>
      <point x="150" y="344"/>
      <point x="150" y="386"/>
      <point x="150" y="441" type="curve" smooth="yes"/>
      <point x="150" y="499"/>
      <point x="150" y="539"/>
      <point x="179" y="579" type="curve" smooth="yes"/>
      <point x="203" y="614"/>
      <point x="236" y="635"/>
      <point x="288" y="635" type="curve" smooth="yes"/>
      <point x="339" y="635"/>
      <point x="369" y="603"/>
      <point x="385" y="577" type="curve" smooth="yes"/>
      <point x="412" y="535"/>
      <point x="415" y="465"/>
      <point x="415" y="430" type="curve" smooth="yes"/>
      <point x="415" y="300"/>
      <point x="340" y="248"/>
    </contour>
  </outline>
</glyph>
<glyph name="equal" format="2">
  <advance width="877"/>
  <unicode hex="003D"/>
  <outline>
    <contour>
      <point x="768" y="336" type="line" smooth="yes"/>
      <point x="783" y="336"/>
      <point x="806" y="336"/>
      <point x="806" y="361" type="curve" smooth="yes"/>
      <point x="806" y="385"/>
      <point x="782" y="385"/>
      <point x="769" y="385" type="curve" smooth="yes"/>
      <point x="107" y="385" type="line" smooth="yes"/>
      <point x="94" y="385"/>
      <point x="70" y="385"/>
      <point x="70" y="361" type="curve" smooth="yes"/>
      <point x="70" y="336"/>
      <point x="93" y="336"/>
      <point x="108" y="336" type="curve" smooth="yes"/>
    </contour>
    <contour>
      <point x="769" y="116" type="line" smooth="yes"/>
      <point x="782" y="116"/>
      <point x="806" y="116"/>
      <point x="806" y="140" type="curve" smooth="yes"/>
      <point x="806" y="165"/>
      <point x="783" y="165"/>
      <point x="768" y="165" type="curve" smooth="yes"/>
      <point x="108" y="165" type="line" smooth="yes"/>
      <point x="93" y="165"/>
      <point x="70" y="165"/>
      <point x="70" y="140" type="curve" smooth="yes"/>
      <point x="70" y="116"/>
      <point x="94" y="116"/>
      <point x="107" y="116" type="curve" smooth="yes"/>
    </contour>
  </outline>
</glyph>
<glyph name="question" format="2">
  <advance width="538"/>
  <unicode hex="003F"/>
  <outline>
    <contour>
      <point x="254" y="194" type="curve" smooth="yes"/>
      <point x="271" y="194"/>
      <point x="271" y="201"/>
      <point x="271" y="222" type="curve" smooth="yes"/>
      <point x="271" y="256" type="line" smooth="yes"/>
      <point x="271" y="344"/>
      <point x="330" y="418"/>
      <point x="405" y="465" type="curve" smooth="yes"/>
      <point x="424" y="477"/>
      <point x="468" y="508"/>
      <point x="468" y="569" type="curve" smooth="yes"/>
      <point x="468" y="622"/>
      <point x="429" y="704"/>
      <point x="259" y="704" type="curve" smooth="yes"/>
      <point x="136" y="704"/>
      <point x="70" y="639"/>
      <point x="70" y="571" type="curve" smooth="yes"/>
      <point x="70" y="530"/>
      <point x="103" y="521"/>
      <point x="118" y="521" type="curve" smooth="yes"/>
      <point x="137" y="521"/>
      <point x="165" y="535"/>
      <point x="165" y="569" type="curve" smooth="yes"/>
      <point x="165" y="575"/>
      <point x="165" y="612"/>
      <point x="118" y="616" type="curve"/>
      <point x="136" y="644"/>
      <point x="182" y="676"/>
      <point x="256" y="676" type="curve" smooth="yes"/>
      <point x="370" y="676"/>
      <point x="377" y="619"/>
      <point x="377" y="573" type="curve" smooth="yes"/>
      <point x="377" y="520"/>
      <point x="357" y="500"/>
      <point x="341" y="486" type="curve" smooth="yes"/>
      <point x="274" y="426"/>
      <point x="237" y="338"/>
      <point x="237" y="261" type="curve" smooth="yes"/>
      <point x="237" y="219" type="line" smooth="yes"/>
      <point x="237" y="199"/>
      <point x="237" y="194"/>
    </contour>
    <contour>
      <point x="311" y="57" type="curve" smooth="yes"/>
      <point x="311" y="92"/>
      <point x="283" y="115"/>
      <point x="254" y="115" type="curve" smooth="yes"/>
      <point x="219" y="115"/>
      <point x="196" y="87"/>
      <point x="196" y="58" type="curve" smooth="yes"/>
      <point x="196" y="23"/>
      <point x="224" y="0"/>
      <point x="253" y="0" type="curve" smooth="yes"/>
      <point x="288" y="0"/>
      <point x="311" y="28"/>
    </contour>
  </outline>
</glyph>
<glyph name="A" format="2">
  <advance width="843"/>
  <unicode hex="0041"/>
  <outline>
    <contour>
      <point x="449" y="690" type="line" smooth="yes"/>
      <point x="443" y="706"/>
      <point x="440" y="713"/>
      <point x="421" y="713" type="curve" smooth="yes"/>
      <point x="402" y="713"/>
      <point x="399" y="706"/>
      <point x="393" y="690" type="curve" smooth="yes"/>
      <point x="162" y="105" type="line" smooth="yes"/>
      <point x="152" y="80"/>
      <point x="135" y="36"/>
      <point x="45" y="36" type="curve"/>
      <point x="45" y="0" type="line"/>
      <point x="79" y="3"/>
      <point x="114" y="4"/>
      <point x="148" y="4" type="curve" smooth="yes"/>
      <point x="188" y="4"/>
      <point x="262" y="0"/>
      <point x="268" y="0" type="curve"/>
      <point x="268" y="36" type="line"/>
      <point x="224" y="36"/>
      <point x="196" y="56"/>
      <point x="196" y="84" type="curve" smooth="yes"/>
      <point x="196" y="92"/>
      <point x="197" y="94"/>
      <point x="201" y="104" type="curve" smooth="yes"/>
      <point x="249" y="227" type="line"/>
      <point x="533" y="227" type="line"/>
      <point x="591" y="81" type="line" smooth="yes"/>
      <point x="593" y="76"/>
      <point x="596" y="69"/>
      <point x="596" y="64" type="curve" smooth="yes"/>
      <point x="596" y="36"/>
      <point x="542" y="36"/>
      <point x="515" y="36" type="curve"/>
      <point x="515" y="0" type="line"/>
      <point x="565" y="2"/>
      <point x="629" y="4"/>
      <point x="664" y="4" type="curve" smooth="yes"/>
      <point x="711" y="4"/>
      <point x="786" y="1"/>
      <point x="797" y="0" type="curve"/>
      <point x="797" y="36" type="line"/>
      <point x="777" y="36" type="line" smooth="yes"/>
      <point x="710" y="36"/>
      <point x="703" y="46"/>
      <point x="692" y="74" type="curve" smooth="yes"/>
    </contour>
    <contour>
      <point x="391" y="588" type="line"/>
      <point x="519" y="263" type="line"/>
      <point x="263" y="263" type="line"/>
    </contour>
  </outline>
</glyph>
<glyph name="C" format="2">
  <advance width="815"/>
  <unicode hex="0043"/>
  <outline>
    <contour>
      <point x="744" y="677" type="line" smooth="yes"/>
      <point x="744" y="694"/>
      <point x="744" y="703"/>
      <point x="730" y="703" type="curve" smooth="yes"/>
      <point x="726" y="703"/>
      <point x="721" y="703"/>
      <point x="713" y="691" type="curve" smooth="yes"/>
      <point x="660" y="615" type="line"/>
      <point x="618" y="657"/>
      <point x="549" y="703"/>
      <point x="453" y="703" type="curve" smooth="yes"/>
      <point x="243" y="703"/>
      <point x="70" y="541"/>
      <point x="70" y="342" type="curve" smooth="yes"/>
      <point x="70" y="139"/>
      <point x="246" y="-20"/>
      <point x="453" y="-20" type="curve" smooth="yes"/>
      <point x="630" y="-20"/>
      <point x="744" y="112"/>
      <point x="744" y="234" type="curve" smooth="yes"/>
      <point x="744" y="245"/>
      <point x="743" y="253"/>
      <point x="727" y="253" type="curve" smooth="yes"/>
      <point x="721" y="253"/>
      <point x="711" y="253"/>
      <point x="710" y="240" type="curve" smooth="yes"/>
      <point x="702" y="79"/>
      <point x="566" y="16"/>
      <point x="467" y="16" type="curve" smooth="yes"/>
      <point x="360" y="16"/>
      <point x="177" y="81"/>
      <point x="177" y="341" type="curve" smooth="yes"/>
      <point x="177" y="612"/>
      <point x="371" y="667"/>
      <point x="465" y="667" type="curve" smooth="yes"/>
      <point x="564" y="667"/>
      <point x="682" y="601"/>
      <point x="708" y="429" type="curve" smooth="yes"/>
      <point x="710" y="417"/>
      <point x="719" y="417"/>
      <point x="726" y="417" type="curve" smooth="yes"/>
      <point x="744" y="417"/>
      <point x="744" y="423"/>
      <point x="744" y="443" type="curve" smooth="yes"/>
    </contour>
  </outline>
</glyph>
<glyph name="E" format="2">
  <advance width="767"/>
  <unicode hex="0045"/>
  <outline>
    <contour>
      <point x="728" y="263" type="line"/>
      <point x="694" y="263" type="line"/>
      <point x="668" y="112"/>
      <point x="645" y="36"/>
      <point x="460" y="36" type="curve" smooth="yes"/>
      <point x="302" y="36" type="line" smooth="yes"/>
      <point x="255" y="36"/>
      <point x="254" y="44"/>
      <point x="254" y="75" type="curve" smooth="yes"/>
      <point x="254" y="335" type="line"/>
      <point x="355" y="335" type="line" smooth="yes"/>
      <point x="456" y="335"/>
      <point x="471" y="305"/>
      <point x="471" y="218" type="curve"/>
      <point x="505" y="218" type="line"/>
      <point x="505" y="488" type="line"/>
      <point x="471" y="488" type="line"/>
      <point x="471" y="401"/>
      <point x="456" y="371"/>
      <point x="355" y="371" type="curve" smooth="yes"/>
      <point x="254" y="371" type="line"/>
      <point x="254" y="604" type="line" smooth="yes"/>
      <point x="254" y="635"/>
      <point x="255" y="643"/>
      <point x="302" y="643" type="curve" smooth="yes"/>
      <point x="452" y="643" type="line" smooth="yes"/>
      <point x="616" y="643"/>
      <point x="645" y="589"/>
      <point x="663" y="449" type="curve"/>
      <point x="697" y="449" type="line"/>
      <point x="667" y="679" type="line"/>
      <point x="56" y="679" type="line"/>
      <point x="56" y="643" type="line"/>
      <point x="80" y="643" type="line" smooth="yes"/>
      <point x="157" y="643"/>
      <point x="159" y="633"/>
      <point x="159" y="598" type="curve" smooth="yes"/>
      <point x="159" y="81" type="line" smooth="yes"/>
      <point x="159" y="47"/>
      <point x="157" y="36"/>
      <point x="80" y="36" type="curve" smooth="yes"/>
      <point x="56" y="36" type="line"/>
      <point x="56" y="0" type="line"/>
      <point x="683" y="0" type="line"/>
    </contour>
  </outline>
</glyph>
<glyph name="G" format="2">
  <advance width="883"/>
  <unicode hex="0047"/>
  <outline>
    <contour>
      <point x="745" y="196" type="line" smooth="yes"/>
      <point x="745" y="240"/>
      <point x="755" y="240"/>
      <point x="822" y="240" type="curve"/>
      <point x="822" y="276" type="line"/>
      <point x="815" y="276"/>
      <point x="742" y="272"/>
      <point x="693" y="272" type="curve" smooth="yes"/>
      <point x="640" y="272"/>
      <point x="564" y="272"/>
      <point x="512" y="276" type="curve"/>
      <point x="512" y="240" type="line"/>
      <point x="550" y="240" type="line" smooth="yes"/>
      <point x="650" y="240"/>
      <point x="650" y="227"/>
      <point x="650" y="194" type="curve" smooth="yes"/>
      <point x="650" y="130" type="line" smooth="yes"/>
      <point x="650" y="108"/>
      <point x="650" y="69"/>
      <point x="593" y="41" type="curve" smooth="yes"/>
      <point x="544" y="16"/>
      <point x="488" y="16"/>
      <point x="475" y="16" type="curve" smooth="yes"/>
      <point x="362" y="16"/>
      <point x="177" y="81"/>
      <point x="177" y="342" type="curve" smooth="yes"/>
      <point x="177" y="608"/>
      <point x="367" y="667"/>
      <point x="466" y="667" type="curve" smooth="yes"/>
      <point x="563" y="667"/>
      <point x="683" y="602"/>
      <point x="709" y="429" type="curve" smooth="yes"/>
      <point x="711" y="417"/>
      <point x="720" y="417"/>
      <point x="727" y="417" type="curve" smooth="yes"/>
      <point x="745" y="417"/>
      <point x="745" y="423"/>
      <point x="745" y="443" type="curve" smooth="yes"/>
      <point x="745" y="677" type="line" smooth="yes"/>
      <point x="745" y="694"/>
      <point x="745" y="703"/>
      <point x="731" y="703" type="curve" smooth="yes"/>
      <point x="727" y="703"/>
      <point x="722" y="703"/>
      <point x="714" y="691" type="curve" smooth="yes"/>
      <point x="661" y="615" type="line"/>
      <point x="612" y="665"/>
      <point x="541" y="703"/>
      <point x="453" y="703" type="curve" smooth="yes"/>
      <point x="245" y="703"/>
      <point x="70" y="542"/>
      <point x="70" y="342" type="curve" smooth="yes"/>
      <point x="70" y="144"/>
      <point x="240" y="-20"/>
      <point x="456" y="-20" type="curve" smooth="yes"/>
      <point x="511" y="-20"/>
      <point x="622" y="-10"/>
      <point x="669" y="60" type="curve"/>
      <point x="686" y="34"/>
      <point x="723" y="0"/>
      <point x="733" y="0" type="curve" smooth="yes"/>
      <point x="745" y="0"/>
      <point x="745" y="11"/>
      <point x="745" y="26" type="curve" smooth="yes"/>
    </contour>
  </outline>
</glyph>
<glyph name="H" format="2">
  <advance width="843"/>
  <unicode hex="0048"/>
  <outline>
    <contour>
      <point x="683" y="602" type="line" smooth="yes"/>
      <point x="683" y="636"/>
      <point x="685" y="647"/>
      <point x="762" y="647" type="curve" smooth="yes"/>
      <point x="786" y="647" type="line"/>
      <point x="786" y="683" type="line"/>
      <point x="736" y="681"/>
      <point x="672" y="679"/>
      <point x="636" y="679" type="curve" smooth="yes"/>
      <point x="599" y="679"/>
      <point x="535" y="681"/>
      <point x="485" y="683" type="curve"/>
      <point x="485" y="647" type="line"/>
      <point x="509" y="647" type="line" smooth="yes"/>
      <point x="586" y="647"/>
      <point x="588" y="637"/>
      <point x="588" y="602" type="curve" smooth="yes"/>
      <point x="588" y="373" type="line"/>
      <point x="254" y="373" type="line"/>
      <point x="254" y="602" type="line" smooth="yes"/>
      <point x="254" y="636"/>
      <point x="256" y="647"/>
      <point x="333" y="647" type="curve" smooth="yes"/>
      <point x="357" y="647" type="line"/>
      <point x="357" y="683" type="line"/>
      <point x="307" y="681"/>
      <point x="243" y="679"/>
      <point x="207" y="679" type="curve" smooth="yes"/>
      <point x="170" y="679"/>
      <point x="106" y="681"/>
      <point x="56" y="683" type="curve"/>
      <point x="56" y="647" type="line"/>
      <point x="80" y="647" type="line" smooth="yes"/>
      <point x="157" y="647"/>
      <point x="159" y="637"/>
      <point x="159" y="602" type="curve" smooth="yes"/>
      <point x="159" y="81" type="line" smooth="yes"/>
      <point x="159" y="47"/>
      <point x="157" y="36"/>
      <point x="80" y="36" type="curve" smooth="yes"/>
      <point x="56" y="36" type="line"/>
      <point x="56" y="0" type="line"/>
      <point x="106" y="2"/>
      <point x="170" y="4"/>
      <point x="206" y="4" type="curve" smooth="yes"/>
      <point x="243" y="4"/>
      <point x="307" y="2"/>
      <point x="357" y="0" type="curve"/>
      <point x="357" y="36" type="line"/>
      <point x="333" y="36" type="line" smooth="yes"/>
      <point x="256" y="36"/>
      <point x="254" y="46"/>
      <point x="254" y="81" type="curve" smooth="yes"/>
      <point x="254" y="337" type="line"/>
      <point x="588" y="337" type="line"/>
      <point x="588" y="81" type="line" smooth="yes"/>
      <point x="588" y="47"/>
      <point x="586" y="36"/>
      <point x="509" y="36" type="curve" smooth="yes"/>
      <point x="485" y="36" type="line"/>
      <point x="485" y="0" type="line"/>
      <point x="535" y="2"/>
      <point x="599" y="4"/>
      <point x="635" y="4" type="curve" smooth="yes"/>
      <point x="672" y="4"/>
      <point x="736" y="2"/>
      <point x="786" y="0" type="curve"/>
      <point x="786" y="36" type="line"/>
      <point x="762" y="36" type="line" smooth="yes"/>
      <point x="685" y="36"/>
      <point x="683" y="46"/>
      <point x="683" y="81" type="curve" smooth="yes"/>
    </contour>
  </outline>
</glyph>
<glyph name="I" format="2">
  <advance width="412"/>
  <unicode hex="0049"/>
  <outline>
    <contour>
      <point x="254" y="601" type="line" smooth="yes"/>
      <point x="254" y="635"/>
      <point x="254" y="647"/>
      <point x="336" y="647" type="curve" smooth="yes"/>
      <point x="362" y="647" type="line"/>
      <point x="362" y="683" type="line"/>
      <point x="354" y="683"/>
      <point x="246" y="679"/>
      <point x="207" y="679" type="curve" smooth="yes"/>
      <point x="167" y="679"/>
      <point x="57" y="683"/>
      <point x="51" y="683" type="curve"/>
      <point x="51" y="647" type="line"/>
      <point x="77" y="647" type="line" smooth="yes"/>
      <point x="159" y="647"/>
      <point x="159" y="635"/>
      <point x="159" y="601" type="curve" smooth="yes"/>
      <point x="159" y="82" type="line" smooth="yes"/>
      <point x="159" y="48"/>
      <point x="159" y="36"/>
      <point x="77" y="36" type="curve" smooth="yes"/>
      <point x="51" y="36" type="line"/>
      <point x="51" y="0" type="line"/>
      <point x="59" y="0"/>
      <point x="167" y="4"/>
      <point x="206" y="4" type="curve" smooth="yes"/>
      <point x="246" y="4"/>
      <point x="356" y="0"/>
      <point x="362" y="0" type="curve"/>
      <point x="362" y="36" type="line"/>
      <point x="336" y="36" type="line" smooth="yes"/>
      <point x="254" y="36"/>
      <point x="254" y="48"/>
      <point x="254" y="82" type="curve" smooth="yes"/>
    </contour>
  </outline>
</glyph>
<glyph name="J" format="2">
  <advance width="583"/>
  <unicode hex="004A"/>
  <outline>
    <contour>
      <point x="437" y="603" type="line" smooth="yes"/>
      <point x="437" y="651"/>
      <point x="458" y="647"/>
      <point x="514" y="647" type="curve"/>
      <point x="514" y="647" type="line"/>
      <point x="514" y="683" type="line"/>
      <point x="509" y="683"/>
      <point x="436" y="679"/>
      <point x="387" y="679" type="curve" smooth="yes"/>
      <point x="365" y="679"/>
      <point x="231" y="682"/>
      <point x="212" y="683" type="curve"/>
      <point x="212" y="647" type="line"/>
      <point x="249" y="647" type="line" smooth="yes"/>
      <point x="346" y="647"/>
      <point x="346" y="634"/>
      <point x="346" y="601" type="curve" smooth="yes"/>
      <point x="346" y="149" type="line" smooth="yes"/>
      <point x="346" y="59"/>
      <point x="292" y="8"/>
      <point x="235" y="8" type="curve" smooth="yes"/>
      <point x="204" y="8"/>
      <point x="151" y="20"/>
      <point x="122" y="58" type="curve"/>
      <point x="159" y="61"/>
      <point x="177" y="85"/>
      <point x="177" y="114" type="curve" smooth="yes"/>
      <point x="177" y="146"/>
      <point x="154" y="169"/>
      <point x="122" y="169" type="curve" smooth="yes"/>
      <point x="91" y="169"/>
      <point x="66" y="149"/>
      <point x="66" y="112" type="curve" smooth="yes"/>
      <point x="66" y="38"/>
      <point x="141" y="-20"/>
      <point x="239" y="-20" type="curve" smooth="yes"/>
      <point x="347" y="-20"/>
      <point x="437" y="51"/>
      <point x="437" y="148" type="curve" smooth="yes"/>
    </contour>
  </outline>
</glyph>
<glyph name="K" format="2">
  <advance width="874"/>
  <unicode hex="004B"/>
  <outline>
    <contour>
      <point x="453" y="416" type="line"/>
      <point x="656" y="589" type="line" smooth="yes"/>
      <point x="705" y="631"/>
      <point x="756" y="646"/>
      <point x="804" y="647" type="curve"/>
      <point x="804" y="683" type="line"/>
      <point x="776" y="681"/>
      <point x="747" y="679"/>
      <point x="719" y="679" type="curve" smooth="yes"/>
      <point x="685" y="679"/>
      <point x="585" y="683"/>
      <point x="581" y="683" type="curve"/>
      <point x="581" y="647" type="line"/>
      <point x="595" y="647"/>
      <point x="618" y="642"/>
      <point x="618" y="618" type="curve" smooth="yes"/>
      <point x="618" y="611"/>
      <point x="614" y="600"/>
      <point x="609" y="595" type="curve"/>
      <point x="254" y="291" type="line"/>
      <point x="254" y="602" type="line" smooth="yes"/>
      <point x="254" y="636"/>
      <point x="256" y="647"/>
      <point x="333" y="647" type="curve" smooth="yes"/>
      <point x="357" y="647" type="line"/>
      <point x="357" y="683" type="line"/>
      <point x="307" y="681"/>
      <point x="243" y="679"/>
      <point x="207" y="679" type="curve" smooth="yes"/>
      <point x="170" y="679"/>
      <point x="106" y="681"/>
      <point x="56" y="683" type="curve"/>
      <point x="56" y="647" type="line"/>
      <point x="80" y="647" type="line" smooth="yes"/>
      <point x="157" y="647"/>
      <point x="159" y="637"/>
      <point x="159" y="602" type="curve" smooth="yes"/>
      <point x="159" y="81" type="line" smooth="yes"/>
      <point x="159" y="47"/>
      <point x="157" y="36"/>
      <point x="80" y="36" type="curve" smooth="yes"/>
      <point x="56" y="36" type="line"/>
      <point x="56" y="0" type="line"/>
      <point x="106" y="2"/>
      <point x="170" y="4"/>
      <point x="206" y="4" type="curve" smooth="yes"/>
      <point x="243" y="4"/>
      <point x="307" y="2"/>
      <point x="357" y="0" type="curve"/>
      <point x="357" y="36" type="line"/>
      <point x="333" y="36" type="line" smooth="yes"/>
      <point x="256" y="36"/>
      <point x="254" y="46"/>
      <point x="254" y="81" type="curve" smooth="yes"/>
      <point x="254" y="246" type="line"/>
      <point x="389" y="361" type="line"/>
      <point x="593" y="95" type="line" smooth="yes"/>
      <point x="599" y="87"/>
      <point x="608" y="76"/>
      <point x="608" y="63" type="curve" smooth="yes"/>
      <point x="608" y="36"/>
      <point x="573" y="36"/>
      <point x="555" y="36" type="curve"/>
      <point x="555" y="0" type="line"/>
      <point x="605" y="2"/>
      <point x="669" y="4"/>
      <point x="704" y="4" type="curve" smooth="yes"/>
      <point x="739" y="4"/>
      <point x="805" y="1"/>
      <point x="819" y="0" type="curve"/>
      <point x="819" y="36" type="line"/>
      <point x="765" y="36"/>
      <point x="742" y="38"/>
      <point x="704" y="88" type="curve" smooth="yes"/>
    </contour>
  </outline>
</glyph>
<glyph name="L" format="2">
  <advance width="706"/>
  <unicode hex="004C"/>
  <outline>
    <contour>
      <point x="651" y="263" type="line"/>
      <point x="617" y="263" type="line"/>
      <point x="606" y="165"/>
      <point x="591" y="36"/>
      <point x="402" y="36" type="curve" smooth="yes"/>
      <point x="302" y="36" type="line" smooth="yes"/>
      <point x="255" y="36"/>
      <point x="254" y="44"/>
      <point x="254" y="75" type="curve" smooth="yes"/>
      <point x="254" y="601" type="line" smooth="yes"/>
      <point x="254" y="634"/>
      <point x="254" y="647"/>
      <point x="348" y="647" type="curve" smooth="yes"/>
      <point x="383" y="647" type="line"/>
      <point x="383" y="683" type="line"/>
      <point x="362" y="682"/>
      <point x="234" y="679"/>
      <point x="208" y="679" type="curve" smooth="yes"/>
      <point x="170" y="679"/>
      <point x="57" y="683"/>
      <point x="56" y="683" type="curve"/>
      <point x="56" y="647" type="line"/>
      <point x="80" y="647" type="line" smooth="yes"/>
      <point x="157" y="647"/>
      <point x="159" y="637"/>
      <point x="159" y="602" type="curve" smooth="yes"/>
      <point x="159" y="81" type="line" smooth="yes"/>
      <point x="159" y="47"/>
      <point x="157" y="36"/>
      <point x="80" y="36" type="curve" smooth="yes"/>
      <point x="56" y="36" type="line"/>
      <point x="56" y="0" type="line"/>
      <point x="621" y="0" type="line"/>
    </contour>
  </outline>
</glyph>
<glyph name="O" format="2">
  <advance width="877"/>
  <unicode hex="004F"/>
  <outline>
    <contour>
      <point x="806" y="338" type="curve" smooth="yes"/>
      <point x="806" y="538"/>
      <point x="642" y="703"/>
      <point x="438" y="703" type="curve" smooth="yes"/>
      <point x="233" y="703"/>
      <point x="70" y="538"/>
      <point x="70" y="338" type="curve" smooth="yes"/>
      <point x="70" y="142"/>
      <point x="233" y="-20"/>
      <point x="438" y="-20" type="curve" smooth="yes"/>
      <point x="643" y="-20"/>
      <point x="806" y="142"/>
    </contour>
    <contour>
      <point x="438" y="13" type="curve" smooth="yes"/>
      <point x="321" y="13"/>
      <point x="177" y="108"/>
      <point x="177" y="354" type="curve" smooth="yes"/>
      <point x="177" y="586"/>
      <point x="324" y="671"/>
      <point x="438" y="671" type="curve" smooth="yes"/>
      <point x="552" y="671"/>
      <point x="699" y="586"/>
      <point x="699" y="354" type="curve" smooth="yes"/>
      <point x="699" y="108"/>
      <point x="555" y="13"/>
    </contour>
  </outline>
</glyph>
<glyph name="P" format="2">
  <advance width="767"/>
  <unicode hex="0050"/>
  <outline>
    <contour>
      <point x="256" y="310" type="line"/>
      <point x="438" y="310" type="line" smooth="yes"/>
      <point x="583" y="310"/>
      <point x="697" y="394"/>
      <point x="697" y="495" type="curve" smooth="yes"/>
      <point x="697" y="594"/>
      <point x="585" y="683"/>
      <point x="438" y="683" type="curve" smooth="yes"/>
      <point x="58" y="683" type="line"/>
      <point x="58" y="647" type="line"/>
      <point x="82" y="647" type="line" smooth="yes"/>
      <point x="159" y="647"/>
      <point x="161" y="637"/>
      <point x="161" y="602" type="curve" smooth="yes"/>
      <point x="161" y="81" type="line" smooth="yes"/>
      <point x="161" y="47"/>
      <point x="159" y="36"/>
      <point x="82" y="36" type="curve" smooth="yes"/>
      <point x="58" y="36" type="line"/>
      <point x="58" y="0" type="line"/>
      <point x="108" y="2"/>
      <point x="172" y="4"/>
      <point x="208" y="4" type="curve" smooth="yes"/>
      <point x="245" y="4"/>
      <point x="309" y="2"/>
      <point x="359" y="0" type="curve"/>
      <point x="359" y="36" type="line"/>
      <point x="335" y="36" type="line" smooth="yes"/>
      <point x="258" y="36"/>
      <point x="256" y="46"/>
      <point x="256" y="81" type="curve" smooth="yes"/>
    </contour>
    <contour>
      <point x="413" y="647" type="line" smooth="yes"/>
      <point x="580" y="647"/>
      <point x="590" y="553"/>
      <point x="590" y="495" type="curve" smooth="yes"/>
      <point x="590" y="451"/>
      <point x="590" y="342"/>
      <point x="413" y="342" type="curve" smooth="yes"/>
      <point x="252" y="342" type="line"/>
      <point x="252" y="608" type="line" smooth="yes"/>
      <point x="252" y="639"/>
      <point x="253" y="647"/>
      <point x="300" y="647" type="curve" smooth="yes"/>
    </contour>
  </outline>
</glyph>
<glyph name="U" format="2">
  <advance width="843"/>
  <unicode hex="0055"/>
  <outline>
    <contour>
      <point x="683" y="575" type="line" smooth="yes"/>
      <point x="683" y="602"/>
      <point x="683" y="647"/>
      <point x="786" y="647" type="curve"/>
      <point x="786" y="683" type="line"/>
      <point x="746" y="680"/>
      <point x="705" y="679"/>
      <point x="665" y="679" type="curve" smooth="yes"/>
      <point x="625" y="679"/>
      <point x="584" y="680"/>
      <point x="544" y="683" type="curve"/>
      <point x="544" y="647" type="line"/>
      <point x="647" y="647"/>
      <point x="647" y="602"/>
      <point x="647" y="575" type="curve" smooth="yes"/>
      <point x="647" y="232" type="line" smooth="yes"/>
      <point x="647" y="94"/>
      <point x="541" y="16"/>
      <point x="437" y="16" type="curve" smooth="yes"/>
      <point x="378" y="16"/>
      <point x="254" y="47"/>
      <point x="254" y="227" type="curve" smooth="yes"/>
      <point x="254" y="602" type="line" smooth="yes"/>
      <point x="254" y="636"/>
      <point x="256" y="647"/>
      <point x="333" y="647" type="curve" smooth="yes"/>
      <point x="357" y="647" type="line"/>
      <point x="357" y="683" type="line"/>
      <point x="307" y="681"/>
      <point x="243" y="679"/>
      <point x="207" y="679" type="curve" smooth="yes"/>
      <point x="170" y="679"/>
      <point x="106" y="681"/>
      <point x="56" y="683" type="curve"/>
      <point x="56" y="647" type="line"/>
      <point x="80" y="647" type="line" smooth="yes"/>
      <point x="157" y="647"/>
      <point x="159" y="637"/>
      <point x="159" y="602" type="curve" smooth="yes"/>
      <point x="159" y="230" type="line" smooth="yes"/>
      <point x="159" y="86"/>
      <point x="287" y="-20"/>
      <point x="435" y="-20" type="curve" smooth="yes"/>
      <point x="572" y="-20"/>
      <point x="683" y="89"/>
      <point x="683" y="229" type="curve" smooth="yes"/>
    </contour>
  </outline>
</glyph>
<glyph name="V" format="2">
  <advance width="843"/>
  <unicode hex="0056"/>
  <outline>
    <contour>
      <point x="698" y="581" type="line" smooth="yes"/>
      <point x="711" y="612"/>
      <point x="735" y="646"/>
      <point x="811" y="647" type="curve"/>
      <point x="811" y="683" type="line"/>
      <point x="782" y="680"/>
      <point x="743" y="679"/>
      <point x="714" y="679" type="curve" smooth="yes"/>
      <point x="674" y="679"/>
      <point x="600" y="683"/>
      <point x="594" y="683" type="curve"/>
      <point x="594" y="647" type="line"/>
      <point x="631" y="647"/>
      <point x="663" y="631"/>
      <point x="663" y="600" type="curve" smooth="yes"/>
      <point x="663" y="593"/>
      <point x="661" y="586"/>
      <point x="658" y="579" type="curve" smooth="yes"/>
      <point x="451" y="96" type="line"/>
      <point x="235" y="603" type="line"/>
      <point x="229" y="615"/>
      <point x="229" y="617"/>
      <point x="229" y="620" type="curve" smooth="yes"/>
      <point x="229" y="647"/>
      <point x="281" y="647"/>
      <point x="308" y="647" type="curve"/>
      <point x="308" y="683" type="line"/>
      <point x="258" y="681"/>
      <point x="194" y="679"/>
      <point x="159" y="679" type="curve" smooth="yes"/>
      <point x="109" y="679"/>
      <point x="34" y="683"/>
      <point x="31" y="683" type="curve"/>
      <point x="31" y="647" type="line"/>
      <point x="48" y="647" type="line" smooth="yes"/>
      <point x="102" y="647"/>
      <point x="119" y="642"/>
      <point x="132" y="611" type="curve" smooth="yes"/>
      <point x="392" y="3" type="line" smooth="yes"/>
      <point x="399" y="-13"/>
      <point x="402" y="-20"/>
      <point x="421" y="-20" type="curve" smooth="yes"/>
      <point x="431" y="-20"/>
      <point x="441" y="-20"/>
      <point x="450" y="1" type="curve" smooth="yes"/>
    </contour>
  </outline>
</glyph>
<glyph name="W" format="2">
  <advance width="1150"/>
  <unicode hex="0057"/>
  <outline>
    <contour>
      <point x="1018" y="581" type="line" smooth="yes"/>
      <point x="1031" y="617"/>
      <point x="1055" y="647"/>
      <point x="1121" y="647" type="curve"/>
      <point x="1121" y="683" type="line"/>
      <point x="1111" y="682"/>
      <point x="1057" y="679"/>
      <point x="1028" y="679" type="curve" smooth="yes"/>
      <point x="986" y="679"/>
      <point x="943" y="681"/>
      <point x="901" y="683" type="curve"/>
      <point x="901" y="647" type="line"/>
      <point x="958" y="646"/>
      <point x="985" y="622"/>
      <point x="985" y="596" type="curve" smooth="yes"/>
      <point x="985" y="592"/>
      <point x="985" y="590"/>
      <point x="980" y="577" type="curve" smooth="yes"/>
      <point x="815" y="115" type="line"/>
      <point x="640" y="605" type="line" smooth="yes"/>
      <point x="636" y="616"/>
      <point x="636" y="618"/>
      <point x="636" y="619" type="curve" smooth="yes"/>
      <point x="636" y="647"/>
      <point x="693" y="647"/>
      <point x="719" y="647" type="curve"/>
      <point x="719" y="683" type="line"/>
      <point x="669" y="681"/>
      <point x="605" y="679"/>
      <point x="570" y="679" type="curve" smooth="yes"/>
      <point x="529" y="679"/>
      <point x="489" y="680"/>
      <point x="448" y="683" type="curve"/>
      <point x="448" y="647" type="line"/>
      <point x="501" y="647"/>
      <point x="518" y="645"/>
      <point x="529" y="632" type="curve" smooth="yes"/>
      <point x="536" y="624"/>
      <point x="549" y="587"/>
      <point x="557" y="564" type="curve"/>
      <point x="396" y="115" type="line"/>
      <point x="222" y="601" type="line" smooth="yes"/>
      <point x="217" y="614"/>
      <point x="217" y="616"/>
      <point x="217" y="619" type="curve" smooth="yes"/>
      <point x="217" y="647"/>
      <point x="274" y="647"/>
      <point x="300" y="647" type="curve"/>
      <point x="300" y="683" type="line"/>
      <point x="250" y="681"/>
      <point x="186" y="679"/>
      <point x="151" y="679" type="curve" smooth="yes"/>
      <point x="110" y="679"/>
      <point x="70" y="680"/>
      <point x="29" y="683" type="curve"/>
      <point x="29" y="647" type="line"/>
      <point x="91" y="647"/>
      <point x="109" y="647"/>
      <point x="122" y="610" type="curve" smooth="yes"/>
      <point x="339" y="3" type="line" smooth="yes"/>
      <point x="345" y="-14"/>
      <point x="350" y="-20"/>
      <point x="366" y="-20" type="curve" smooth="yes"/>
      <point x="384" y="-20"/>
      <point x="387" y="-10"/>
      <point x="392" y="3" type="curve" smooth="yes"/>
      <point x="575" y="514" type="line"/>
      <point x="758" y="3" type="line" smooth="yes"/>
      <point x="763" y="-10"/>
      <point x="766" y="-20"/>
      <point x="784" y="-20" type="curve" smooth="yes"/>
      <point x="801" y="-20"/>
      <point x="805" y="-13"/>
      <point x="811" y="3" type="curve" smooth="yes"/>
    </contour>
  </outline>
</glyph>
<glyph name="Y" format="2">
  <advance width="843"/>
  <unicode hex="0059"/>
  <outline>
    <contour>
      <point x="682" y="582" type="line" smooth="yes"/>
      <point x="725" y="644"/>
      <point x="789" y="647"/>
      <point x="818" y="647" type="curve"/>
      <point x="818" y="683" type="line"/>
      <point x="789" y="680"/>
      <point x="750" y="679"/>
      <point x="720" y="679" type="curve" smooth="yes"/>
      <point x="680" y="679"/>
      <point x="606" y="683"/>
      <point x="600" y="683" type="curve"/>
      <point x="600" y="647" type="line"/>
      <point x="633" y="647"/>
      <point x="651" y="632"/>
      <point x="651" y="612" type="curve" smooth="yes"/>
      <point x="651" y="599"/>
      <point x="642" y="587"/>
      <point x="637" y="579" type="curve"/>
      <point x="455" y="319" type="line"/>
      <point x="254" y="607" type="line" smooth="yes"/>
      <point x="245" y="619"/>
      <point x="245" y="621"/>
      <point x="245" y="625" type="curve" smooth="yes"/>
      <point x="245" y="647"/>
      <point x="285" y="647"/>
      <point x="310" y="647" type="curve"/>
      <point x="310" y="683" type="line"/>
      <point x="303" y="683"/>
      <point x="194" y="679"/>
      <point x="156" y="679" type="curve" smooth="yes"/>
      <point x="104" y="679"/>
      <point x="25" y="683"/>
      <point x="24" y="683" type="curve"/>
      <point x="24" y="647" type="line"/>
      <point x="44" y="647" type="line" smooth="yes"/>
      <point x="96" y="647"/>
      <point x="118" y="642"/>
      <point x="138" y="613" type="curve" smooth="yes"/>
      <point x="375" y="273" type="line"/>
      <point x="375" y="81" type="line" smooth="yes"/>
      <point x="375" y="47"/>
      <point x="373" y="36"/>
      <point x="296" y="36" type="curve" smooth="yes"/>
      <point x="272" y="36" type="line"/>
      <point x="272" y="0" type="line"/>
      <point x="274" y="0"/>
      <point x="379" y="4"/>
      <point x="421" y="4" type="curve" smooth="yes"/>
      <point x="456" y="4"/>
      <point x="565" y="0"/>
      <point x="570" y="0" type="curve"/>
      <point x="570" y="36" type="line"/>
      <point x="545" y="36" type="line" smooth="yes"/>
      <point x="468" y="36"/>
      <point x="466" y="46"/>
      <point x="466" y="85" type="curve" smooth="yes"/>
      <point x="466" y="273" type="line"/>
    </contour>
  </outline>
</glyph>
<glyph name="e" format="2">
  <advance width="507"/>
  <unicode hex="0065"/>
  <outline>
    <contour>
      <point x="440" y="228" type="line" smooth="yes"/>
      <point x="461" y="228"/>
      <point x="468" y="228"/>
      <point x="468" y="250" type="curve" smooth="yes"/>
      <point x="468" y="338"/>
      <point x="419" y="446"/>
      <point x="270" y="446" type="curve" smooth="yes"/>
      <point x="139" y="446"/>
      <point x="39" y="342"/>
      <point x="39" y="219" type="curve" smooth="yes"/>
      <point x="39" y="92"/>
      <point x="150" y="-10"/>
      <point x="283" y="-10" type="curve" smooth="yes"/>
      <point x="418" y="-10"/>
      <point x="468" y="98"/>
      <point x="468" y="120" type="curve" smooth="yes"/>
      <point x="468" y="124"/>
      <point x="466" y="134"/>
      <point x="451" y="134" type="curve" smooth="yes"/>
      <point x="438" y="134"/>
      <point x="436" y="128"/>
      <point x="433" y="118" type="curve"/>
      <point x="402" y="37"/>
      <point x="326" y="22"/>
      <point x="290" y="22" type="curve" smooth="yes"/>
      <point x="243" y="22"/>
      <point x="198" y="43"/>
      <point x="168" y="81" type="curve" smooth="yes"/>
      <point x="131" y="128"/>
      <point x="130" y="189"/>
      <point x="130" y="228" type="curve"/>
    </contour>
    <contour>
      <point x="131" y="254" type="line"/>
      <point x="142" y="395"/>
      <point x="232" y="418"/>
      <point x="270" y="418" type="curve" smooth="yes"/>
      <point x="393" y="418"/>
      <point x="397" y="279"/>
      <point x="398" y="254" type="curve"/>
    </contour>
  </outline>
</glyph>
<glyph name="g" format="2">
  <advance width="569"/>
  <unicode hex="0067"/>
  <outline>
    <contour>
      <point x="284" y="-205" type="curve" smooth="yes"/>
      <point x="411" y="-205"/>
      <point x="529" y="-155"/>
      <point x="529" y="-75" type="curve" smooth="yes"/>
      <point x="529" y="-45"/>
      <point x="517" y="9"/>
      <point x="462" y="39" type="curve" smooth="yes"/>
      <point x="403" y="70"/>
      <point x="344" y="70"/>
      <point x="247" y="70" type="curve" smooth="yes"/>
      <point x="225" y="70"/>
      <point x="189" y="70"/>
      <point x="181" y="71" type="curve"/>
      <point x="149" y="78"/>
      <point x="131" y="108"/>
      <point x="131" y="137" type="curve" smooth="yes"/>
      <point x="131" y="162"/>
      <point x="138" y="170"/>
      <point x="144" y="178" type="curve"/>
      <point x="159" y="169"/>
      <point x="195" y="147"/>
      <point x="253" y="147" type="curve" smooth="yes"/>
      <point x="356" y="147"/>
      <point x="431" y="216"/>
      <point x="431" y="294" type="curve" smooth="yes"/>
      <point x="431" y="333"/>
      <point x="413" y="364"/>
      <point x="389" y="390" type="curve"/>
      <point x="434" y="422"/>
      <point x="473" y="423"/>
      <point x="490" y="423" type="curve"/>
      <point x="486" y="419"/>
      <point x="481" y="415"/>
      <point x="481" y="399" type="curve" smooth="yes"/>
      <point x="481" y="379"/>
      <point x="496" y="367"/>
      <point x="513" y="367" type="curve" smooth="yes"/>
      <point x="527" y="367"/>
      <point x="545" y="377"/>
      <point x="545" y="400" type="curve" smooth="yes"/>
      <point x="545" y="423"/>
      <point x="526" y="451"/>
      <point x="486" y="451" type="curve" smooth="yes"/>
      <point x="471" y="451"/>
      <point x="417" y="448"/>
      <point x="370" y="405" type="curve"/>
      <point x="340" y="427"/>
      <point x="298" y="441"/>
      <point x="254" y="441" type="curve" smooth="yes"/>
      <point x="151" y="441"/>
      <point x="76" y="372"/>
      <point x="76" y="294" type="curve" smooth="yes"/>
      <point x="76" y="255"/>
      <point x="96" y="219"/>
      <point x="124" y="193" type="curve"/>
      <point x="116" y="184"/>
      <point x="94" y="151"/>
      <point x="94" y="112" type="curve" smooth="yes"/>
      <point x="94" y="99"/>
      <point x="97" y="52"/>
      <point x="136" y="23" type="curve"/>
      <point x="91" y="8"/>
      <point x="39" y="-25"/>
      <point x="39" y="-77" type="curve" smooth="yes"/>
      <point x="39" y="-150"/>
      <point x="149" y="-205"/>
    </contour>
    <contour>
      <point x="254" y="177" type="curve" smooth="yes"/>
      <point x="156" y="177"/>
      <point x="156" y="273"/>
      <point x="156" y="294" type="curve" smooth="yes"/>
      <point x="156" y="310"/>
      <point x="156" y="350"/>
      <point x="176" y="376" type="curve" smooth="yes"/>
      <point x="190" y="393"/>
      <point x="217" y="411"/>
      <point x="253" y="411" type="curve" smooth="yes"/>
      <point x="351" y="411"/>
      <point x="351" y="315"/>
      <point x="351" y="294" type="curve" smooth="yes"/>
      <point x="351" y="278"/>
      <point x="351" y="238"/>
      <point x="331" y="212" type="curve" smooth="yes"/>
      <point x="317" y="195"/>
      <point x="290" y="177"/>
    </contour>
    <contour>
      <point x="284" y="-175" type="curve" smooth="yes"/>
      <point x="179" y="-175"/>
      <point x="100" y="-128"/>
      <point x="100" y="-76" type="curve" smooth="yes"/>
      <point x="100.0" y="-58.8647"/>
      <point x="107.6700344448" y="-39.57220281239999"/>
      <point x="123.0101033344" y="-24.341885298597333" type="curve" smooth="yes"/>
      <point x="139.0031544448" y="-8.463257361599998"/>
      <point x="163.33312" y="3.0000000000000018"/>
      <point x="196" y="3" type="curve" smooth="yes"/>
      <point x="254" y="3" type="line" smooth="yes"/>
      <point x="343" y="3"/>
      <point x="468" y="3"/>
      <point x="468" y="-76" type="curve" smooth="yes"/>
      <point x="468" y="-129"/>
      <point x="389" y="-175"/>
    </contour>
  </outline>
</glyph>
<glyph name="h" format="2">
  <advance width="630"/>
  <unicode hex="0068"/>
  <outline>
    <contour>
      <point x="515" y="303" type="line" smooth="yes"/>
      <point x="515" y="390"/>
      <point x="472" y="441"/>
      <point x="365" y="441" type="curve" smooth="yes"/>
      <point x="276" y="441"/>
      <point x="227" y="388"/>
      <point x="205" y="350" type="curve"/>
      <point x="204" y="350" type="line"/>
      <point x="204" y="694" type="line"/>
      <point x="54" y="683" type="line"/>
      <point x="54" y="647" type="line"/>
      <point x="121" y="647"/>
      <point x="129" y="640"/>
      <point x="129" y="591" type="curve" smooth="yes"/>
      <point x="129" y="79" type="line" smooth="yes"/>
      <point x="129" y="36"/>
      <point x="119" y="36"/>
      <point x="54" y="36" type="curve"/>
      <point x="54" y="0" type="line"/>
      <point x="56" y="0"/>
      <point x="126" y="4"/>
      <point x="168" y="4" type="curve" smooth="yes"/>
      <point x="205" y="4"/>
      <point x="274" y="1"/>
      <point x="283" y="0" type="curve"/>
      <point x="283" y="36" type="line"/>
      <point x="218" y="36"/>
      <point x="208" y="36"/>
      <point x="208" y="79" type="curve" smooth="yes"/>
      <point x="208" y="259" type="line" smooth="yes"/>
      <point x="208" y="364"/>
      <point x="291" y="413"/>
      <point x="357" y="413" type="curve" smooth="yes"/>
      <point x="427" y="413"/>
      <point x="436" y="358"/>
      <point x="436" y="307" type="curve" smooth="yes"/>
      <point x="436" y="79" type="line" smooth="yes"/>
      <point x="436" y="36"/>
      <point x="426" y="36"/>
      <point x="361" y="36" type="curve"/>
      <point x="361" y="0" type="line"/>
      <point x="363" y="0"/>
      <point x="433" y="4"/>
      <point x="475" y="4" type="curve" smooth="yes"/>
      <point x="512" y="4"/>
      <point x="581" y="1"/>
      <point x="590" y="0" type="curve"/>
      <point x="590" y="36" type="line"/>
      <point x="525" y="36"/>
      <point x="515" y="36"/>
      <point x="515" y="79" type="curve" smooth="yes"/>
    </contour>
  </outline>
</glyph>
<glyph name="n" format="2">
  <advance width="630"/>
  <unicode hex="006E"/>
  <outline>
    <contour>
      <point x="515" y="303" type="line" smooth="yes"/>
      <point x="515" y="390"/>
      <point x="472" y="441"/>
      <point x="365" y="441" type="curve" smooth="yes"/>
      <point x="283" y="441"/>
      <point x="230" y="396"/>
      <point x="202" y="344" type="curve"/>
      <point x="201" y="344" type="line"/>
      <point x="201" y="441" type="line"/>
      <point x="54" y="430" type="line"/>
      <point x="54" y="394" type="line"/>
      <point x="121" y="394"/>
      <point x="129" y="387"/>
      <point x="129" y="338" type="curve" smooth="yes"/>
      <point x="129" y="79" type="line" smooth="yes"/>
      <point x="129" y="36"/>
      <point x="119" y="36"/>
      <point x="54" y="36" type="curve"/>
      <point x="54" y="0" type="line"/>
      <point x="56" y="0"/>
      <point x="126" y="4"/>
      <point x="168" y="4" type="curve" smooth="yes"/>
      <point x="205" y="4"/>
      <point x="274" y="1"/>
      <point x="283" y="0" type="curve"/>
      <point x="283" y="36" type="line"/>
      <point x="218" y="36"/>
      <point x="208" y="36"/>
      <point x="208" y="79" type="curve" smooth="yes"/>
      <point x="208" y="259" type="line" smooth="yes"/>
      <point x="208" y="364"/>
      <point x="291" y="413"/>
      <point x="357" y="413" type="curve" smooth="yes"/>
      <point x="427" y="413"/>
      <point x="436" y="358"/>
      <point x="436" y="307" type="curve" smooth="yes"/>
      <point x="436" y="79" type="line" smooth="yes"/>
      <point x="436" y="36"/>
      <point x="426" y="36"/>
      <point x="361" y="36" type="curve"/>
      <point x="361" y="0" type="line"/>
      <point x="363" y="0"/>
      <point x="433" y="4"/>
      <point x="475" y="4" type="curve" smooth="yes"/>
      <point x="512" y="4"/>
      <point x="581" y="1"/>
      <point x="590" y="0" type="curve"/>
      <point x="590" y="36" type="line"/>
      <point x="525" y="36"/>
      <point x="515" y="36"/>
      <point x="515" y="79" type="curve" smooth="yes"/>
    </contour>
  </outline>
</glyph>
<glyph name="q" format="2">
  <advance width="600"/>
  <unicode hex="0071"/>
  <outline>
    <contour>
      <point x="427" y="-115" type="line" smooth="yes"/>
      <point x="427" y="-158"/>
      <point x="417" y="-158"/>
      <point x="352" y="-158" type="curve"/>
      <point x="352" y="-158" type="line"/>
      <point x="352" y="-194" type="line"/>
      <point x="354" y="-194"/>
      <point x="424" y="-190"/>
      <point x="466" y="-190" type="curve" smooth="yes"/>
      <point x="503" y="-190"/>
      <point x="572" y="-193"/>
      <point x="581" y="-194" type="curve"/>
      <point x="581" y="-158" type="line"/>
      <point x="581" y="-158" type="line"/>
      <point x="516" y="-158"/>
      <point x="506" y="-158"/>
      <point x="506" y="-115" type="curve" smooth="yes"/>
      <point x="506" y="441" type="line"/>
      <point x="476" y="441" type="line"/>
      <point x="440" y="354" type="line"/>
      <point x="409" y="402"/>
      <point x="359" y="441"/>
      <point x="288" y="441" type="curve" smooth="yes"/>
      <point x="159" y="441"/>
      <point x="46" y="343"/>
      <point x="46" y="215" type="curve" smooth="yes"/>
      <point x="46" y="90"/>
      <point x="153" y="-10"/>
      <point x="279" y="-10" type="curve" smooth="yes"/>
      <point x="359" y="-10"/>
      <point x="402" y="33"/>
      <point x="427" y="58" type="curve"/>
    </contour>
    <contour>
      <point x="137" y="214" type="curve" smooth="yes"/>
      <point x="137" y="331"/>
      <point x="216" y="409"/>
      <point x="296" y="409" type="curve" smooth="yes"/>
      <point x="380" y="409"/>
      <point x="431" y="327"/>
      <point x="431" y="271" type="curve" smooth="yes"/>
      <point x="431" y="144" type="line" smooth="yes"/>
      <point x="431" y="126"/>
      <point x="431" y="122"/>
      <point x="416" y="96" type="curve" smooth="yes"/>
      <point x="386" y="47"/>
      <point x="336" y="18"/>
      <point x="285" y="18" type="curve" smooth="yes"/>
      <point x="202" y="18"/>
      <point x="137" y="108"/>
    </contour>
  </outline>
</glyph>
<glyph name="r" format="2">
  <advance width="446"/>
  <unicode hex="0072"/>
  <outline>
    <contour>
      <point x="124" y="79" type="line" smooth="yes"/>
      <point x="124" y="36"/>
      <point x="114" y="36"/>
      <point x="49" y="36" type="curve"/>
      <point x="49" y="36" type="line"/>
      <point x="49" y="0" type="line"/>
      <point x="54" y="0"/>
      <point x="122" y="4"/>
      <point x="163" y="4" type="curve" smooth="yes"/>
      <point x="206" y="4"/>
      <point x="250" y="2"/>
      <point x="293" y="0" type="curve"/>
      <point x="293" y="36" type="line"/>
      <point x="273" y="36" type="line" smooth="yes"/>
      <point x="199" y="36"/>
      <point x="199" y="47"/>
      <point x="199" y="81" type="curve" smooth="yes"/>
      <point x="199" y="228" type="line" smooth="yes"/>
      <point x="199" y="311"/>
      <point x="238" y="413"/>
      <point x="333" y="413" type="curve"/>
      <point x="333" y="413"/>
      <point x="333" y="413"/>
      <point x="333" y="413" type="curve"/>
      <point x="333" y="413" type="line"/>
      <point x="324" y="406"/>
      <point x="316" y="393"/>
      <point x="316" y="377" type="curve" smooth="yes"/>
      <point x="316" y="344"/>
      <point x="342" y="331"/>
      <point x="361" y="331" type="curve" smooth="yes"/>
      <point x="385" y="331"/>
      <point x="407" y="347"/>
      <point x="407" y="377" type="curve" smooth="yes"/>
      <point x="407" y="411"/>
      <point x="375" y="441"/>
      <point x="328" y="441" type="curve" smooth="yes"/>
      <point x="278" y="441"/>
      <point x="223" y="410"/>
      <point x="193" y="334" type="curve"/>
      <point x="192" y="334" type="line"/>
      <point x="192" y="441" type="line"/>
      <point x="49" y="430" type="line"/>
      <point x="49" y="394" type="line"/>
      <point x="116" y="394"/>
      <point x="124" y="387"/>
      <point x="124" y="338" type="curve" smooth="yes"/>
    </contour>
  </outline>
</glyph>
<glyph name="u" format="2">
  <advance width="630"/>
  <unicode hex="0075"/>
  <outline>
    <contour>
      <point x="162.74841605756382" y="29.37568955186449" type="curve" smooth="yes"/>
      <point x="186.5096979663" y="5.875978747700017"/>
      <point x="227.00061" y="-9.99999999999998"/>
      <point x="296" y="-10" type="curve" smooth="yes"/>
      <point x="318" y="-10"/>
      <point x="391" y="-10"/>
      <point x="439" y="74" type="curve"/>
      <point x="440" y="74" type="line"/>
      <point x="440" y="-10" type="line"/>
      <point x="590" y="0" type="line"/>
      <point x="590" y="36" type="line"/>
      <point x="523" y="36"/>
      <point x="515" y="43"/>
      <point x="515" y="92" type="curve" smooth="yes"/>
      <point x="515" y="441" type="line"/>
      <point x="361" y="430" type="line"/>
      <point x="361" y="394" type="line"/>
      <point x="428" y="394"/>
      <point x="436" y="387"/>
      <point x="436" y="338" type="curve" smooth="yes"/>
      <point x="436" y="167" type="line" smooth="yes"/>
      <point x="436" y="79"/>
      <point x="379" y="18"/>
      <point x="303" y="18" type="curve" smooth="yes"/>
      <point x="212" y="18"/>
      <point x="208" y="61"/>
      <point x="208" y="112" type="curve" smooth="yes"/>
      <point x="208" y="441" type="line"/>
      <point x="54" y="430" type="line"/>
      <point x="54" y="394" type="line"/>
      <point x="129" y="394"/>
      <point x="129" y="391"/>
      <point x="129" y="302" type="curve" smooth="yes"/>
      <point x="129" y="152" type="line" smooth="yes"/>
      <point x="129.0" y="111.50873000000001"/>
      <point x="129.0" y="62.75259322640002"/>
    </contour>
  </outline>
</glyph>
<glyph name="v" format="2">
  <advance width="600"/>
  <unicode hex="0076"/>
  <outline>
    <contour>
      <point x="113" y="359" type="curve" smooth="yes"/>
      <point x="271" y="11" type="line" smooth="yes"/>
      <point x="276" y="-1"/>
      <point x="282" y="-10"/>
      <point x="299" y="-10" type="curve" smooth="yes"/>
      <point x="318" y="-10"/>
      <point x="322" y="-1"/>
      <point x="327" y="10" type="curve" smooth="yes"/>
      <point x="474" y="333" type="line" smooth="yes"/>
      <point x="502" y="394"/>
      <point x="552" y="395"/>
      <point x="568" y="395" type="curve"/>
      <point x="568" y="431" type="line"/>
      <point x="543" y="429"/>
      <point x="517" y="427"/>
      <point x="492" y="427" type="curve" smooth="yes"/>
      <point x="465" y="427"/>
      <point x="428" y="428"/>
      <point x="401" y="431" type="curve"/>
      <point x="401" y="395" type="line"/>
      <point x="443" y="393"/>
      <point x="443" y="360"/>
      <point x="443" y="357" type="curve" smooth="yes"/>
      <point x="443" y="352"/>
      <point x="442" y="342"/>
      <point x="435" y="328" type="curve" smooth="yes"/>
      <point x="322" y="81" type="line"/>
      <point x="198" y="353" type="line"/>
      <point x="198" y="354"/>
      <point x="192" y="365"/>
      <point x="192" y="372" type="curve" smooth="yes"/>
      <point x="192" y="395"/>
      <point x="226" y="395"/>
      <point x="243" y="395" type="curve"/>
      <point x="243" y="431" type="line"/>
      <point x="241" y="431"/>
      <point x="170" y="427"/>
      <point x="129" y="427" type="curve" smooth="yes"/>
      <point x="99" y="427"/>
      <point x="60" y="428"/>
      <point x="31" y="431" type="curve"/>
      <point x="31" y="395" type="line"/>
      <point x="86" y="395"/>
      <point x="98" y="393"/>
    </contour>
  </outline>
</glyph>
<glyph name="Oslash" format="2">
  <advance width="877"/>
  <unicode hex="00D8"/>
  <outline>
    <contour>
      <point x="743" y="722" type="line"/>
      <point x="718" y="742" type="line"/>
      <point x="643" y="641" type="line"/>
      <point x="569" y="690"/>
      <point x="495" y="703"/>
      <point x="438" y="703" type="curve" smooth="yes"/>
      <point x="233" y="703"/>
      <point x="70" y="538"/>
      <point x="70" y="338" type="curve" smooth="yes"/>
      <point x="70" y="229"/>
      <point x="122" y="128"/>
      <point x="207" y="60" type="curve"/>
      <point x="133" y="-39" type="line"/>
      <point x="158" y="-58" type="line"/>
      <point x="232" y="40" type="line"/>
      <point x="308" y="-6"/>
      <point x="375" y="-20"/>
      <point x="438" y="-20" type="curve" smooth="yes"/>
      <point x="643" y="-20"/>
      <point x="806" y="142"/>
      <point x="806" y="338" type="curve" smooth="yes"/>
      <point x="806" y="399"/>
      <point x="790" y="523"/>
      <point x="669" y="622" type="curve"/>
    </contour>
    <contour>
      <point x="236" y="99" type="line"/>
      <point x="187" y="156"/>
      <point x="165" y="234"/>
      <point x="165" y="339" type="curve" smooth="yes"/>
      <point x="165" y="642"/>
      <point x="367" y="675"/>
      <point x="438" y="675" type="curve" smooth="yes"/>
      <point x="502" y="675"/>
      <point x="565" y="653"/>
      <point x="617" y="607" type="curve"/>
    </contour>
    <contour>
      <point x="639" y="583" type="line"/>
      <point x="703" y="510"/>
      <point x="711" y="404"/>
      <point x="711" y="339" type="curve" smooth="yes"/>
      <point x="711" y="253"/>
      <point x="698" y="173"/>
      <point x="644" y="103" type="curve" smooth="yes"/>
      <point x="610" y="59"/>
      <point x="538" y="8"/>
      <point x="438" y="8" type="curve" smooth="yes"/>
      <point x="347" y="8"/>
      <point x="285" y="51"/>
      <point x="259" y="75" type="curve"/>
    </contour>
  </outline>
</glyph>
<glyph name="dotlessi" format="2">
  <advance width="323"/>
  <unicode hex="0131"/>
  <outline>
    <contour>
      <point x="206" y="441" type="line"/>
      <point x="59" y="430" type="line"/>
      <point x="59" y="394" type="line"/>
      <point x="122" y="394"/>
      <point x="131" y="388"/>
      <point x="131" y="339" type="curve" smooth="yes"/>
      <point x="131" y="79" type="line" smooth="yes"/>
      <point x="131" y="36"/>
      <point x="121" y="36"/>
      <point x="56" y="36" type="curve"/>
      <point x="56" y="0" type="line"/>
      <point x="58" y="0"/>
      <point x="128" y="4"/>
      <point x="168" y="4" type="curve" smooth="yes"/>
      <point x="203" y="4"/>
      <point x="239" y="3"/>
      <point x="274" y="0" type="curve"/>
      <point x="274" y="36" type="line"/>
      <point x="216" y="36"/>
      <point x="206" y="36"/>
      <point x="206" y="78" type="curve" smooth="yes"/>
    </contour>
  </outline>
</glyph>
<glyph name="dotaccent" format="2">
  <advance width="323"/>
  <unicode hex="02D9"/>
  <outline>
    <contour>
      <point x="218" y="616" type="curve" smooth="yes"/>
      <point x="218" y="648"/>
      <point x="193" y="674"/>
      <point x="161" y="674" type="curve" smooth="yes"/>
      <point x="127" y="674"/>
      <point x="104" y="646"/>
      <point x="104" y="617" type="curve" smooth="yes"/>
      <point x="104" y="585"/>
      <point x="129" y="559"/>
      <point x="161" y="559" type="curve" smooth="yes"/>
      <point x="195" y="559"/>
      <point x="218" y="587"/>
    </contour>
  </outline>
</glyph>
<glyph name="tilde" format="2">
  <advance width="569"/>
  <unicode hex="02DC"/>
  <outline>
    <contour>
      <point x="448" y="673" type="line"/>
      <point x="419" y="642"/>
      <point x="390" y="627"/>
      <point x="362" y="627" type="curve" smooth="yes"/>
      <point x="336" y="627"/>
      <point x="306" y="642"/>
      <point x="298" y="647" type="curve"/>
      <point x="262" y="664"/>
      <point x="241" y="673"/>
      <point x="219" y="673" type="curve" smooth="yes"/>
      <point x="178" y="673"/>
      <point x="163" y="657"/>
      <point x="100" y="593" type="curve"/>
      <point x="120" y="573" type="line"/>
      <point x="149" y="604"/>
      <point x="178" y="619"/>
      <point x="206" y="619" type="curve" smooth="yes"/>
      <point x="232" y="619"/>
      <point x="262" y="604"/>
      <point x="270" y="599" type="curve"/>
      <point x="306" y="582"/>
      <point x="327" y="573"/>
      <point x="349" y="573" type="curve" smooth="yes"/>
      <point x="390" y="573"/>
      <point x="405" y="589"/>
      <point x="468" y="653" type="curve"/>
    </contour>
  </outline>
</glyph>
<glyph name="hungarumlaut" format="2">
  <advance width="569"/>
  <unicode hex="02DD"/>
  <outline>
    <contour>
      <point x="147" y="528" type="line"/>
      <point x="176" y="510" type="line"/>
      <point x="273" y="629" type="line" smooth="yes"/>
      <point x="281" y="638"/>
      <point x="287" y="646"/>
      <point x="287" y="660" type="curve" smooth="yes"/>
      <point x="287" y="685"/>
      <point x="263" y="700"/>
      <point x="245" y="700" type="curve" smooth="yes"/>
      <point x="221" y="700"/>
      <point x="213" y="683"/>
      <point x="207" y="668" type="curve" smooth="yes"/>
    </contour>
    <contour>
      <point x="332" y="528" type="line"/>
      <point x="361" y="510" type="line"/>
      <point x="458" y="629" type="line" smooth="yes"/>
      <point x="466" y="638"/>
      <point x="472" y="646"/>
      <point x="472" y="660" type="curve" smooth="yes"/>
      <point x="472" y="685"/>
      <point x="448" y="700"/>
      <point x="430" y="700" type="curve" smooth="yes"/>
      <point x="406" y="700"/>
      <point x="398" y="683"/>
      <point x="392" y="668" type="curve" smooth="yes"/>
    </contour>
  </outline>
</glyph>
<glyph name="Gamma" format="2">
  <advance width="706"/>
  <unicode hex="0393"/>
  <outline>
    <contour>
      <point x="621" y="679" type="line"/>
      <point x="56" y="679" type="line"/>
      <point x="56" y="643" type="line"/>
      <point x="80" y="643" type="line" smooth="yes"/>
      <point x="157" y="643"/>
      <point x="159" y="633"/>
      <point x="159" y="598" type="curve" smooth="yes"/>
      <point x="159" y="81" type="line" smooth="yes"/>
      <point x="159" y="47"/>
      <point x="157" y="36"/>
      <point x="80" y="36" type="curve" smooth="yes"/>
      <point x="56" y="36" type="line"/>
      <point x="56" y="0" type="line"/>
      <point x="57" y="0"/>
      <point x="170" y="4"/>
      <point x="208" y="4" type="curve" smooth="yes"/>
      <point x="249" y="4"/>
      <point x="368" y="1"/>
      <point x="383" y="0" type="curve"/>
      <point x="383" y="36" type="line"/>
      <point x="348" y="36" type="line" smooth="yes"/>
      <point x="254" y="36"/>
      <point x="254" y="49"/>
      <point x="254" y="82" type="curve" smooth="yes"/>
      <point x="254" y="604" type="line" smooth="yes"/>
      <point x="254" y="635"/>
      <point x="255" y="643"/>
      <point x="302" y="643" type="curve" smooth="yes"/>
      <point x="423" y="643" type="line" smooth="yes"/>
      <point x="575" y="643"/>
      <point x="600" y="587"/>
      <point x="617" y="449" type="curve"/>
      <point x="651" y="449" type="line"/>
    </contour>
  </outline>
</glyph>
<glyph name="Theta" format="2">
  <advance width="877"/>
  <unicode hex="0398"/>
  <outline>
    <contour>
      <point x="806" y="338" type="curve" smooth="yes"/>
      <point x="806" y="538"/>
      <point x="642" y="703"/>
      <point x="438" y="703" type="curve" smooth="yes"/>
      <point x="233" y="703"/>
      <point x="70" y="538"/>
      <point x="70" y="338" type="curve" smooth="yes"/>
      <point x="70" y="142"/>
      <point x="233" y="-20"/>
      <point x="438" y="-20" type="curve" smooth="yes"/>
      <point x="643" y="-20"/>
      <point x="806" y="142"/>
    </contour>
    <contour>
      <point x="438" y="10" type="curve" smooth="yes"/>
      <point x="317" y="10"/>
      <point x="170" y="104"/>
      <point x="170" y="339" type="curve" smooth="yes"/>
      <point x="170" y="574"/>
      <point x="314" y="675"/>
      <point x="438" y="675" type="curve" smooth="yes"/>
      <point x="562" y="675"/>
      <point x="706" y="574"/>
      <point x="706" y="339" type="curve" smooth="yes"/>
      <point x="706" y="103"/>
      <point x="558" y="10"/>
    </contour>
    <contour>
      <point x="643" y="418" type="line"/>
      <point x="609" y="418" type="line"/>
      <point x="609" y="384" type="line"/>
      <point x="267" y="384" type="line"/>
      <point x="267" y="418" type="line"/>
      <point x="233" y="418" type="line"/>
      <point x="233" y="268" type="line"/>
      <point x="267" y="268" type="line"/>
      <point x="267" y="302" type="line"/>
      <point x="609" y="302" type="line"/>
      <point x="609" y="268" type="line"/>
      <point x="643" y="268" type="line"/>
    </contour>
  </outline>
</glyph>
<glyph name="Lambda" format="2">
  <advance width="781"/>
  <unicode hex="039B"/>
  <outline>
    <contour>
      <point x="418" y="692" type="line" smooth="yes"/>
      <point x="411" y="712"/>
      <point x="400" y="713"/>
      <point x="391" y="713" type="curve" smooth="yes"/>
      <point x="371" y="713"/>
      <point x="368" y="705"/>
      <point x="363" y="690" type="curve" smooth="yes"/>
      <point x="148" y="101" type="line" smooth="yes"/>
      <point x="129" y="48"/>
      <point x="88" y="37"/>
      <point x="45" y="36" type="curve"/>
      <point x="45" y="0" type="line"/>
      <point x="76" y="3"/>
      <point x="107" y="4"/>
      <point x="138" y="4" type="curve" smooth="yes"/>
      <point x="170" y="4"/>
      <point x="242" y="1"/>
      <point x="257" y="0" type="curve"/>
      <point x="257" y="36" type="line"/>
      <point x="205" y="37"/>
      <point x="183" y="61"/>
      <point x="183" y="85" type="curve" smooth="yes"/>
      <point x="183" y="91"/>
      <point x="183" y="93"/>
      <point x="188" y="105" type="curve" smooth="yes"/>
      <point x="359" y="575" type="line"/>
      <point x="539" y="82" type="line" smooth="yes"/>
      <point x="544" y="69"/>
      <point x="544" y="67"/>
      <point x="544" y="64" type="curve" smooth="yes"/>
      <point x="544" y="36"/>
      <point x="489" y="36"/>
      <point x="462" y="36" type="curve"/>
      <point x="462" y="0" type="line"/>
      <point x="512" y="2"/>
      <point x="576" y="4"/>
      <point x="612" y="4" type="curve" smooth="yes"/>
      <point x="653" y="4"/>
      <point x="725" y="1"/>
      <point x="736" y="0" type="curve"/>
      <point x="736" y="36" type="line"/>
      <point x="672" y="36"/>
      <point x="657" y="36"/>
      <point x="642" y="76" type="curve" smooth="yes"/>
    </contour>
  </outline>
</glyph>
<glyph name="Xi" format="2">
  <advance width="753"/>
  <unicode hex="039E"/>
  <outline>
    <contour>
      <point x="684" y="676" type="line"/>
      <point x="69" y="676" type="line"/>
      <point x="60" y="515" type="line"/>
      <point x="94" y="515" type="line"/>
      <point x="95" y="530"/>
      <point x="97" y="577"/>
      <point x="107" y="591" type="curve"/>
      <point x="113" y="601"/>
      <point x="168" y="601"/>
      <point x="187" y="601" type="curve" smooth="yes"/>
      <point x="566" y="601" type="line" smooth="yes"/>
      <point x="578" y="601"/>
      <point x="638" y="601"/>
      <point x="645" y="594" type="curve" smooth="yes"/>
      <point x="656" y="582"/>
      <point x="658" y="532"/>
      <point x="659" y="515" type="curve"/>
      <point x="693" y="515" type="line"/>
    </contour>
    <contour>
      <point x="63" y="0" type="line"/>
      <point x="690" y="0" type="line"/>
      <point x="699" y="172" type="line"/>
      <point x="665" y="172" type="line"/>
      <point x="664" y="155"/>
      <point x="662" y="99"/>
      <point x="651" y="85" type="curve"/>
      <point x="645" y="75"/>
      <point x="579" y="75"/>
      <point x="567" y="75" type="curve" smooth="yes"/>
      <point x="186" y="75" type="line" smooth="yes"/>
      <point x="155" y="75"/>
      <point x="106" y="75"/>
      <point x="100" y="87" type="curve" smooth="yes"/>
      <point x="91" y="106"/>
      <point x="89" y="155"/>
      <point x="88" y="172" type="curve"/>
      <point x="54" y="172" type="line"/>
    </contour>
    <contour>
      <point x="591" y="441" type="line"/>
      <point x="557" y="441" type="line"/>
      <point x="557" y="389" type="line"/>
      <point x="196" y="389" type="line"/>
      <point x="196" y="441" type="line"/>
      <point x="162" y="441" type="line"/>
      <point x="162" y="262" type="line"/>
      <point x="196" y="262" type="line"/>
      <point x="196" y="314" type="line"/>
      <point x="557" y="314" type="line"/>
      <point x="557" y="262" type="line"/>
      <point x="591" y="262" type="line"/>
    </contour>
  </outline>
</glyph>
<glyph name="Pi" format="2">
  <advance width="843"/>
  <unicode hex="03A0"/>
  <outline>
    <contour>
      <point x="56" y="0" type="line"/>
      <point x="106" y="2"/>
      <point x="170" y="4"/>
      <point x="206" y="4" type="curve" smooth="yes"/>
      <point x="243" y="4"/>
      <point x="307" y="2"/>
      <point x="357" y="0" type="curve"/>
      <point x="357" y="36" type="line"/>
      <point x="333" y="36" type="line" smooth="yes"/>
      <point x="256" y="36"/>
      <point x="254" y="46"/>
      <point x="254" y="81" type="curve" smooth="yes"/>
      <point x="254" y="643" type="line"/>
      <point x="588" y="643" type="line"/>
      <point x="588" y="81" type="line" smooth="yes"/>
      <point x="588" y="47"/>
      <point x="586" y="36"/>
      <point x="509" y="36" type="curve" smooth="yes"/>
      <point x="485" y="36" type="line"/>
      <point x="485" y="0" type="line"/>
      <point x="535" y="2"/>
      <point x="599" y="4"/>
      <point x="635" y="4" type="curve" smooth="yes"/>
      <point x="672" y="4"/>
      <point x="736" y="2"/>
      <point x="786" y="0" type="curve"/>
      <point x="786" y="36" type="line"/>
      <point x="762" y="36" type="line" smooth="yes"/>
      <point x="685" y="36"/>
      <point x="683" y="46"/>
      <point x="683" y="81" type="curve" smooth="yes"/>
      <point x="683" y="598" type="line" smooth="yes"/>
      <point x="683" y="632"/>
      <point x="685" y="643"/>
      <point x="762" y="643" type="curve" smooth="yes"/>
      <point x="786" y="643" type="line"/>
      <point x="786" y="679" type="line"/>
      <point x="56" y="679" type="line"/>
      <point x="56" y="643" type="line"/>
      <point x="80" y="643" type="line" smooth="yes"/>
      <point x="157" y="643"/>
      <point x="159" y="633"/>
      <point x="159" y="598" type="curve" smooth="yes"/>
      <point x="159" y="81" type="line" smooth="yes"/>
      <point x="159" y="47"/>
      <point x="157" y="36"/>
      <point x="80" y="36" type="curve" smooth="yes"/>
      <point x="56" y="36" type="line"/>
    </contour>
  </outline>
</glyph>
<glyph name="Sigma" format="2">
  <advance width="815"/>
  <unicode hex="03A3"/>
  <outline>
    <contour>
      <point x="416" y="324" type="line"/>
      <point x="428" y="335"/>
      <point x="428" y="337"/>
      <point x="428" y="342" type="curve" smooth="yes"/>
      <point x="428" y="347"/>
      <point x="422" y="354"/>
      <point x="421" y="356" type="curve"/>
      <point x="197" y="647" type="line"/>
      <point x="449" y="647" type="line" smooth="yes"/>
      <point x="546.3566" y="647.0"/>
      <point x="611.6836574527999" y="638.6444671616"/>
      <point x="653.6088449013466" y="596.8720669552882" type="curve" smooth="yes"/>
      <point x="682.7384799199999" y="567.8485885664"/>
      <point x="700.5709199999999" y="522.6932"/>
      <point x="710" y="453" type="curve"/>
      <point x="744" y="453" type="line"/>
      <point x="714" y="683" type="line"/>
      <point x="99" y="683" type="line" smooth="yes"/>
      <point x="74" y="683"/>
      <point x="70" y="682"/>
      <point x="70" y="657" type="curve"/>
      <point x="70" y="657"/>
      <point x="70" y="657"/>
      <point x="70" y="657" type="curve"/>
      <point x="343" y="301" type="line"/>
      <point x="83" y="33" type="line" smooth="yes"/>
      <point x="72" y="21"/>
      <point x="70" y="20"/>
      <point x="70" y="14" type="curve" smooth="yes"/>
      <point x="70" y="0"/>
      <point x="83" y="0"/>
      <point x="99" y="0" type="curve" smooth="yes"/>
      <point x="714" y="0" type="line"/>
      <point x="744" y="242" type="line"/>
      <point x="710" y="242" type="line"/>
      <point x="689" y="68"/>
      <point x="601" y="59"/>
      <point x="530" y="52" type="curve" smooth="yes"/>
      <point x="495" y="49"/>
      <point x="489" y="48"/>
      <point x="447" y="48" type="curve" smooth="yes"/>
      <point x="148" y="48" type="line"/>
    </contour>
  </outline>
</glyph>
<glyph name="Upsilon" format="2">
  <advance width="877"/>
  <unicode hex="03A5"/>
  <outline>
    <contour>
      <point x="486" y="347" type="line" smooth="yes"/>
      <point x="486" y="466"/>
      <point x="533" y="623"/>
      <point x="661" y="623" type="curve" smooth="yes"/>
      <point x="695" y="623"/>
      <point x="763" y="609"/>
      <point x="770" y="552" type="curve" smooth="yes"/>
      <point x="771" y="540"/>
      <point x="772" y="532"/>
      <point x="788" y="532" type="curve" smooth="yes"/>
      <point x="806" y="532"/>
      <point x="806" y="545"/>
      <point x="806" y="552" type="curve" smooth="yes"/>
      <point x="806" y="616"/>
      <point x="754" y="703"/>
      <point x="660" y="703" type="curve" smooth="yes"/>
      <point x="541" y="703"/>
      <point x="463" y="595"/>
      <point x="439" y="454" type="curve"/>
      <point x="438" y="454" type="line"/>
      <point x="411" y="601"/>
      <point x="333" y="703"/>
      <point x="216" y="703" type="curve" smooth="yes"/>
      <point x="121" y="703"/>
      <point x="70" y="616"/>
      <point x="70" y="552" type="curve" smooth="yes"/>
      <point x="70" y="545"/>
      <point x="70" y="532"/>
      <point x="88" y="532" type="curve" smooth="yes"/>
      <point x="104" y="532"/>
      <point x="105" y="540"/>
      <point x="106" y="552" type="curve" smooth="yes"/>
      <point x="113" y="612"/>
      <point x="187" y="623"/>
      <point x="215" y="623" type="curve" smooth="yes"/>
      <point x="343" y="623"/>
      <point x="391" y="467"/>
      <point x="391" y="347" type="curve" smooth="yes"/>
      <point x="391" y="82" type="line" smooth="yes"/>
      <point x="391" y="49"/>
      <point x="391" y="36"/>
      <point x="297" y="36" type="curve" smooth="yes"/>
      <point x="262" y="36" type="line"/>
      <point x="262" y="0" type="line"/>
      <point x="285" y="2"/>
      <point x="414" y="4"/>
      <point x="438" y="4" type="curve" smooth="yes"/>
      <point x="486" y="4"/>
      <point x="601" y="1"/>
      <point x="615" y="0" type="curve"/>
      <point x="615" y="36" type="line"/>
      <point x="580" y="36" type="line" smooth="yes"/>
      <point x="486" y="36"/>
      <point x="486" y="49"/>
      <point x="486" y="82" type="curve" smooth="yes"/>
    </contour>
  </outline>
</glyph>
<glyph name="Phi" format="2">
  <advance width="815"/>
  <unicode hex="03A6"/>
  <outline>
    <contour>
      <point x="231" y="0" type="line"/>
      <point x="253" y="1"/>
      <point x="367" y="4"/>
      <point x="404" y="4" type="curve" smooth="yes"/>
      <point x="463" y="4"/>
      <point x="567" y="1"/>
      <point x="577" y="0" type="curve"/>
      <point x="577" y="36" type="line"/>
      <point x="542" y="36" type="line" smooth="yes"/>
      <point x="448" y="36"/>
      <point x="448" y="49"/>
      <point x="448" y="82" type="curve" smooth="yes"/>
      <point x="448" y="139" type="line"/>
      <point x="612" y="151"/>
      <point x="744" y="237"/>
      <point x="744" y="341" type="curve" smooth="yes"/>
      <point x="744" y="449"/>
      <point x="607" y="533"/>
      <point x="448" y="544" type="curve"/>
      <point x="448" y="601" type="line" smooth="yes"/>
      <point x="448" y="634"/>
      <point x="448" y="647"/>
      <point x="542" y="647" type="curve" smooth="yes"/>
      <point x="577" y="647" type="line"/>
      <point x="577" y="683" type="line"/>
      <point x="555" y="682"/>
      <point x="441" y="679"/>
      <point x="404" y="679" type="curve" smooth="yes"/>
      <point x="345" y="679"/>
      <point x="241" y="682"/>
      <point x="231" y="683" type="curve"/>
      <point x="231" y="647" type="line"/>
      <point x="266" y="647" type="line" smooth="yes"/>
      <point x="360" y="647"/>
      <point x="360" y="634"/>
      <point x="360" y="601" type="curve" smooth="yes"/>
      <point x="360" y="543" type="line"/>
      <point x="185" y="529"/>
      <point x="70" y="438"/>
      <point x="70" y="342" type="curve" smooth="yes"/>
      <point x="70" y="242"/>
      <point x="190" y="154"/>
      <point x="360" y="140" type="curve"/>
      <point x="360" y="82" type="line" smooth="yes"/>
      <point x="360" y="49"/>
      <point x="360" y="36"/>
      <point x="266" y="36" type="curve" smooth="yes"/>
      <point x="231" y="36" type="line"/>
    </contour>
    <contour>
      <point x="360" y="168" type="line"/>
      <point x="277" y="176"/>
      <point x="173" y="213"/>
      <point x="173" y="341" type="curve" smooth="yes"/>
      <point x="173" y="473"/>
      <point x="281" y="507"/>
      <point x="360" y="515" type="curve"/>
    </contour>
    <contour>
      <point x="448" y="168" type="curve"/>
      <point x="448" y="515" type="line"/>
      <point x="539" y="508"/>
      <point x="641" y="468"/>
      <point x="641" y="342" type="curve" smooth="yes"/>
      <point x="641" y="210"/>
      <point x="532" y="174"/>
    </contour>
  </outline>
</glyph>
<glyph name="Psi" format="2">
  <advance width="877"/>
  <unicode hex="03A8"/>
  <outline>
    <contour>
      <point x="479" y="601" type="line" smooth="yes"/>
      <point x="479" y="634"/>
      <point x="479" y="647"/>
      <point x="573" y="647" type="curve" smooth="yes"/>
      <point x="608" y="647" type="line"/>
      <point x="608" y="683" type="line"/>
      <point x="586" y="682"/>
      <point x="472" y="679"/>
      <point x="435" y="679" type="curve" smooth="yes"/>
      <point x="376" y="679"/>
      <point x="272" y="682"/>
      <point x="262" y="683" type="curve"/>
      <point x="262" y="647" type="line"/>
      <point x="297" y="647" type="line" smooth="yes"/>
      <point x="391" y="647"/>
      <point x="391" y="634"/>
      <point x="391" y="601" type="curve" smooth="yes"/>
      <point x="391" y="170" type="line"/>
      <point x="242" y="203"/>
      <point x="237" y="350"/>
      <point x="237" y="418" type="curve" smooth="yes"/>
      <point x="237" y="430"/>
      <point x="236" y="552"/>
      <point x="136" y="552" type="curve" smooth="yes"/>
      <point x="99" y="552" type="line" smooth="yes"/>
      <point x="84" y="552"/>
      <point x="70" y="552"/>
      <point x="70" y="538" type="curve" smooth="yes"/>
      <point x="70" y="526"/>
      <point x="82" y="524"/>
      <point x="85" y="524" type="curve"/>
      <point x="148" y="517"/>
      <point x="149" y="426"/>
      <point x="149" y="419" type="curve" smooth="yes"/>
      <point x="149" y="377"/>
      <point x="150" y="291"/>
      <point x="214" y="220" type="curve" smooth="yes"/>
      <point x="251" y="179"/>
      <point x="312" y="148"/>
      <point x="391" y="140" type="curve"/>
      <point x="391" y="82" type="line" smooth="yes"/>
      <point x="391" y="49"/>
      <point x="391" y="36"/>
      <point x="297" y="36" type="curve" smooth="yes"/>
      <point x="262" y="36" type="line"/>
      <point x="262" y="0" type="line"/>
      <point x="284" y="1"/>
      <point x="398" y="4"/>
      <point x="435" y="4" type="curve" smooth="yes"/>
      <point x="494" y="4"/>
      <point x="598" y="1"/>
      <point x="608" y="0" type="curve"/>
      <point x="608" y="36" type="line"/>
      <point x="573" y="36" type="line" smooth="yes"/>
      <point x="479" y="36"/>
      <point x="479" y="49"/>
      <point x="479" y="82" type="curve" smooth="yes"/>
      <point x="479" y="140" type="line"/>
      <point x="593" y="152"/>
      <point x="638" y="197"/>
      <point x="662" y="222" type="curve" smooth="yes"/>
      <point x="708" y="268"/>
      <point x="726" y="351"/>
      <point x="727" y="394" type="curve" smooth="yes"/>
      <point x="727" y="466"/>
      <point x="739" y="517"/>
      <point x="794" y="525" type="curve"/>
      <point x="801" y="525"/>
      <point x="806" y="531"/>
      <point x="806" y="538" type="curve" smooth="yes"/>
      <point x="806" y="552"/>
      <point x="793" y="552"/>
      <point x="778" y="552" type="curve" smooth="yes"/>
      <point x="740" y="552" type="line" smooth="yes"/>
      <point x="650" y="552"/>
      <point x="639" y="461"/>
      <point x="639" y="397" type="curve" smooth="yes"/>
      <point x="638" y="321"/>
      <point x="611" y="193"/>
      <point x="479" y="170" type="curve"/>
    </contour>
  </outline>
</glyph>
<glyph name="quoteright" format="2">
  <advance width="323"/>
  <unicode hex="2019"/>
  <outline>
    <contour>
      <point x="132" y="385" type="curve" smooth="yes"/>
      <point x="144" y="385"/>
      <point x="234" y="462"/>
      <point x="234" y="585" type="curve" smooth="yes"/>
      <point x="234" y="644"/>
      <point x="210" y="694"/>
      <point x="161" y="694" type="curve" smooth="yes"/>
      <point x="123" y="694"/>
      <point x="104" y="664"/>
      <point x="104" y="637" type="curve" smooth="yes"/>
      <point x="104" y="609"/>
      <point x="122" y="579"/>
      <point x="162" y="579" type="curve" smooth="yes"/>
      <point x="190" y="579"/>
      <point x="199" y="589"/>
      <point x="206" y="598" type="curve"/>
      <point x="206" y="566"/>
      <point x="206" y="484"/>
      <point x="127" y="414" type="curve" smooth="yes"/>
      <point x="120" y="408"/>
      <point x="118" y="405"/>
      <point x="118" y="400" type="curve" smooth="yes"/>
      <point x="118" y="394"/>
      <point x="125" y="385"/>
    </contour>
  </outline>
</glyph>
<glyph name="quotedblright" format="2">
  <advance width="569"/>
  <unicode hex="201D"/>
  <outline>
    <contour>
      <point x="147" y="598" type="curve"/>
      <point x="147" y="566"/>
      <point x="147" y="484"/>
      <point x="68" y="414" type="curve" smooth="yes"/>
      <point x="61" y="408"/>
      <point x="59" y="405"/>
      <point x="59" y="400" type="curve" smooth="yes"/>
      <point x="59" y="394"/>
      <point x="66" y="385"/>
      <point x="73" y="385" type="curve" smooth="yes"/>
      <point x="85" y="385"/>
      <point x="175" y="462"/>
      <point x="175" y="585" type="curve" smooth="yes"/>
      <point x="175" y="644"/>
      <point x="151" y="694"/>
      <point x="102" y="694" type="curve" smooth="yes"/>
      <point x="64" y="694"/>
      <point x="45" y="664"/>
      <point x="45" y="637" type="curve" smooth="yes"/>
      <point x="45" y="609"/>
      <point x="63" y="579"/>
      <point x="103" y="579" type="curve" smooth="yes"/>
      <point x="131" y="579"/>
      <point x="140" y="589"/>
    </contour>
    <contour>
      <point x="362" y="598" type="curve"/>
      <point x="362" y="566"/>
      <point x="362" y="484"/>
      <point x="283" y="414" type="curve" smooth="yes"/>
      <point x="276" y="408"/>
      <point x="274" y="405"/>
      <point x="274" y="400" type="curve" smooth="yes"/>
      <point x="274" y="394"/>
      <point x="281" y="385"/>
      <point x="288" y="385" type="curve" smooth="yes"/>
      <point x="300" y="385"/>
      <point x="390" y="462"/>
      <point x="390" y="585" type="curve" smooth="yes"/>
      <point x="390" y="644"/>
      <point x="366" y="694"/>
      <point x="317" y="694" type="curve" smooth="yes"/>
      <point x="279" y="694"/>
      <point x="260" y="664"/>
      <point x="260" y="637" type="curve" smooth="yes"/>
      <point x="260" y="609"/>
      <point x="278" y="579"/>
      <point x="318" y="579" type="curve" smooth="yes"/>
      <point x="346" y="579"/>
      <point x="355" y="589"/>
    </contour>
  </outline>
</glyph>
<glyph name="Omega" format="2">
  <advance width="815"/>
  <unicode hex="2126"/>
  <outline>
    <contour>
      <point x="757" y="168" type="line"/>
      <point x="723" y="168" type="line"/>
      <point x="722" y="165"/>
      <point x="713" y="118"/>
      <point x="705" y="95" type="curve" smooth="yes"/>
      <point x="699" y="79"/>
      <point x="696" y="71"/>
      <point x="634" y="71" type="curve" smooth="yes"/>
      <point x="549" y="71" type="line"/>
      <point x="566" y="127"/>
      <point x="595" y="166"/>
      <point x="651" y="241" type="curve" smooth="yes"/>
      <point x="700" y="307"/>
      <point x="744" y="373"/>
      <point x="744" y="454" type="curve" smooth="yes"/>
      <point x="744" y="589"/>
      <point x="599" y="703"/>
      <point x="407" y="703" type="curve" smooth="yes"/>
      <point x="215" y="703"/>
      <point x="70" y="589"/>
      <point x="70" y="454" type="curve" smooth="yes"/>
      <point x="70" y="366"/>
      <point x="118" y="301"/>
      <point x="188" y="207" type="curve" smooth="yes"/>
      <point x="217" y="169"/>
      <point x="249" y="124"/>
      <point x="265" y="71" type="curve"/>
      <point x="180" y="71" type="line" smooth="yes"/>
      <point x="120" y="71"/>
      <point x="116" y="79"/>
      <point x="111" y="90" type="curve" smooth="yes"/>
      <point x="103" y="109"/>
      <point x="91" y="166"/>
      <point x="91" y="168" type="curve"/>
      <point x="57" y="168" type="line"/>
      <point x="93" y="0" type="line"/>
      <point x="273" y="0" type="line" smooth="yes"/>
      <point x="294" y="0"/>
      <point x="301" y="0"/>
      <point x="301" y="22" type="curve" smooth="yes"/>
      <point x="301" y="94"/>
      <point x="264" y="179"/>
      <point x="243" y="228" type="curve" smooth="yes"/>
      <point x="205" y="316"/>
      <point x="177" y="381"/>
      <point x="177" y="455" type="curve" smooth="yes"/>
      <point x="177" y="597"/>
      <point x="290" y="675"/>
      <point x="407" y="675" type="curve" smooth="yes"/>
      <point x="525" y="675"/>
      <point x="637" y="596"/>
      <point x="637" y="455" type="curve" smooth="yes"/>
      <point x="637" y="380"/>
      <point x="607" y="311"/>
      <point x="573" y="233" type="curve" smooth="yes"/>
      <point x="551" y="183"/>
      <point x="513" y="95"/>
      <point x="513" y="23" type="curve" smooth="yes"/>
      <point x="513" y="0"/>
      <point x="519" y="0"/>
      <point x="542" y="0" type="curve" smooth="yes"/>
      <point x="721" y="0" type="line"/>
    </contour>
  </outline>
</glyph>
<glyph name="Delta" format="2">
  <advance width="938"/>
  <unicode hex="2206"/>
  <outline>
    <contour>
      <point x="501" y="690" type="line" smooth="yes"/>
      <point x="491" y="708"/>
      <point x="488" y="713"/>
      <point x="468" y="713" type="curve" smooth="yes"/>
      <point x="456" y="713"/>
      <point x="446" y="710"/>
      <point x="437" y="694" type="curve" smooth="yes"/>
      <point x="68" y="24" type="line"/>
      <point x="61" y="13"/>
      <point x="61" y="11"/>
      <point x="61" y="10" type="curve" smooth="yes"/>
      <point x="61" y="0"/>
      <point x="69" y="0"/>
      <point x="85" y="0" type="curve" smooth="yes"/>
      <point x="852" y="0" type="line" smooth="yes"/>
      <point x="868" y="0"/>
      <point x="876" y="0"/>
      <point x="876" y="10" type="curve" smooth="yes"/>
      <point x="876" y="11"/>
      <point x="876" y="13"/>
      <point x="869" y="24" type="curve"/>
    </contour>
    <contour>
      <point x="435" y="615" type="line"/>
      <point x="729" y="82" type="line"/>
      <point x="141" y="82" type="line"/>
    </contour>
  </outline>
</glyph>
<glyph name="ffi" format="2">
  <advance width="970"/>
  <outline>
    <contour>
      <point x="713" y="434" type="line" smooth="yes"/>
      <point x="702" y="433"/>
      <point x="697" y="433"/>
      <point x="695" y="432" type="curve" smooth="yes"/>
      <point x="693" y="431"/>
      <point x="691" y="431"/>
      <point x="677" y="431" type="curve" smooth="yes"/>
      <point x="518" y="431" type="line"/>
      <point x="518" y="540" type="line" smooth="yes"/>
      <point x="518" y="639"/>
      <point x="621" y="676"/>
      <point x="690" y="676" type="curve" smooth="yes"/>
      <point x="724" y="676"/>
      <point x="758" y="669"/>
      <point x="784" y="648" type="curve"/>
      <point x="748" y="640"/>
      <point x="745" y="612"/>
      <point x="745" y="600" type="curve" smooth="yes"/>
      <point x="745" y="569"/>
      <point x="770" y="551"/>
      <point x="794" y="551" type="curve" smooth="yes"/>
      <point x="812" y="551"/>
      <point x="843" y="563"/>
      <point x="843" y="602" type="curve" smooth="yes"/>
      <point x="843" y="657"/>
      <point x="787" y="704"/>
      <point x="694" y="704" type="curve" smooth="yes"/>
      <point x="615" y="704"/>
      <point x="544" y="680"/>
      <point x="504" y="647" type="curve"/>
      <point x="467" y="697"/>
      <point x="404" y="704"/>
      <point x="368" y="704" type="curve" smooth="yes"/>
      <point x="266" y="704"/>
      <point x="124" y="657"/>
      <point x="124" y="541" type="curve" smooth="yes"/>
      <point x="124" y="431" type="line"/>
      <point x="38" y="431" type="line"/>
      <point x="38" y="395" type="line"/>
      <point x="124" y="395" type="line"/>
      <point x="124" y="79" type="line" smooth="yes"/>
      <point x="124" y="36"/>
      <point x="114" y="36"/>
      <point x="49" y="36" type="curve"/>
      <point x="49" y="0" type="line"/>
      <point x="51" y="0"/>
      <point x="121" y="4"/>
      <point x="161" y="4" type="curve" smooth="yes"/>
      <point x="199" y="4"/>
      <point x="236" y="3"/>
      <point x="274" y="0" type="curve"/>
      <point x="274" y="36" type="line"/>
      <point x="209" y="36"/>
      <point x="199" y="36"/>
      <point x="199" y="79" type="curve" smooth="yes"/>
      <point x="199" y="395" type="line"/>
      <point x="447" y="395" type="line"/>
      <point x="447" y="79" type="line" smooth="yes"/>
      <point x="447" y="36"/>
      <point x="437" y="36"/>
      <point x="372" y="36" type="curve"/>
      <point x="372" y="0" type="line"/>
      <point x="374" y="0"/>
      <point x="444" y="4"/>
      <point x="484" y="4" type="curve" smooth="yes"/>
      <point x="522" y="4"/>
      <point x="559" y="3"/>
      <point x="597" y="0" type="curve"/>
      <point x="597" y="36" type="line"/>
      <point x="532" y="36"/>
      <point x="522" y="36"/>
      <point x="522" y="79" type="curve" smooth="yes"/>
      <point x="522" y="395" type="line"/>
      <point x="721" y="395" type="line" smooth="yes"/>
      <point x="762" y="395"/>
      <point x="770" y="385"/>
      <point x="770" y="341" type="curve" smooth="yes"/>
      <point x="770" y="79" type="line" smooth="yes"/>
      <point x="770" y="36"/>
      <point x="760" y="36"/>
      <point x="695" y="36" type="curve"/>
      <point x="695" y="0" type="line"/>
      <point x="697" y="0"/>
      <point x="767" y="4"/>
      <point x="807" y="4" type="curve" smooth="yes"/>
      <point x="845" y="4"/>
      <point x="882" y="3"/>
      <point x="920" y="0" type="curve"/>
      <point x="920" y="36" type="line"/>
      <point x="855" y="36"/>
      <point x="845" y="36"/>
      <point x="845" y="79" type="curve" smooth="yes"/>
      <point x="845" y="443" type="line"/>
    </contour>
    <contour>
      <point x="195" y="431" type="line"/>
      <point x="195" y="540" type="line" smooth="yes"/>
      <point x="195" y="639"/>
      <point x="296" y="676"/>
      <point x="366" y="676" type="curve" smooth="yes"/>
      <point x="394" y="676"/>
      <point x="430" y="670"/>
      <point x="458" y="649" type="curve"/>
      <point x="427" y="642"/>
      <point x="418" y="618"/>
      <point x="418" y="600" type="curve" smooth="yes"/>
      <point x="418" y="591"/>
      <point x="421" y="567"/>
      <point x="447" y="556" type="curve"/>
      <point x="447" y="431" type="line"/>
    </contour>
  </outline>
</glyph>
<glyph name="ffl" format="2">
  <advance width="970"/>
  <outline>
    <contour>
      <point x="845" y="694" type="line"/>
      <point x="837" y="693"/>
      <point x="807" y="688"/>
      <point x="804" y="688" type="curve" smooth="yes"/>
      <point x="802" y="688"/>
      <point x="800" y="688"/>
      <point x="795" y="691" type="curve"/>
      <point x="759" y="704"/>
      <point x="716" y="704"/>
      <point x="697" y="704" type="curve" smooth="yes"/>
      <point x="599" y="704"/>
      <point x="539" y="674"/>
      <point x="508" y="651" type="curve"/>
      <point x="483" y="691"/>
      <point x="432" y="704"/>
      <point x="370" y="704" type="curve" smooth="yes"/>
      <point x="262" y="704"/>
      <point x="124" y="655"/>
      <point x="124" y="541" type="curve" smooth="yes"/>
      <point x="124" y="431" type="line"/>
      <point x="38" y="431" type="line"/>
      <point x="38" y="395" type="line"/>
      <point x="124" y="395" type="line"/>
      <point x="124" y="79" type="line" smooth="yes"/>
      <point x="124" y="36"/>
      <point x="114" y="36"/>
      <point x="49" y="36" type="curve"/>
      <point x="49" y="0" type="line"/>
      <point x="51" y="0"/>
      <point x="121" y="4"/>
      <point x="161" y="4" type="curve" smooth="yes"/>
      <point x="199" y="4"/>
      <point x="236" y="3"/>
      <point x="274" y="0" type="curve"/>
      <point x="274" y="36" type="line"/>
      <point x="209" y="36"/>
      <point x="199" y="36"/>
      <point x="199" y="79" type="curve" smooth="yes"/>
      <point x="199" y="395" type="line"/>
      <point x="447" y="395" type="line"/>
      <point x="447" y="79" type="line" smooth="yes"/>
      <point x="447" y="36"/>
      <point x="437" y="36"/>
      <point x="372" y="36" type="curve"/>
      <point x="372" y="0" type="line"/>
      <point x="374" y="0"/>
      <point x="444" y="4"/>
      <point x="484" y="4" type="curve" smooth="yes"/>
      <point x="522" y="4"/>
      <point x="559" y="3"/>
      <point x="597" y="0" type="curve"/>
      <point x="597" y="36" type="line"/>
      <point x="532" y="36"/>
      <point x="522" y="36"/>
      <point x="522" y="79" type="curve" smooth="yes"/>
      <point x="522" y="395" type="line"/>
      <point x="770" y="395" type="line"/>
      <point x="770" y="79" type="line" smooth="yes"/>
      <point x="770" y="36"/>
      <point x="760" y="36"/>
      <point x="695" y="36" type="curve"/>
      <point x="695" y="0" type="line"/>
      <point x="697" y="0"/>
      <point x="767" y="4"/>
      <point x="807" y="4" type="curve" smooth="yes"/>
      <point x="845" y="4"/>
      <point x="882" y="3"/>
      <point x="920" y="0" type="curve"/>
      <point x="920" y="36" type="line"/>
      <point x="855" y="36"/>
      <point x="845" y="36"/>
      <point x="845" y="79" type="curve" smooth="yes"/>
    </contour>
    <contour>
      <point x="195" y="431" type="line"/>
      <point x="195" y="540" type="line" smooth="yes"/>
      <point x="195" y="636"/>
      <point x="291" y="676"/>
      <point x="368" y="676" type="curve" smooth="yes"/>
      <point x="384" y="676"/>
      <point x="420" y="675"/>
      <point x="452" y="660" type="curve"/>
      <point x="449" y="659"/>
      <point x="424" y="647"/>
      <point x="424" y="617" type="curve" smooth="yes"/>
      <point x="424" y="595"/>
      <point x="439" y="580"/>
      <point x="450" y="575" type="curve"/>
      <point x="447" y="564"/>
      <point x="447" y="544"/>
      <point x="447" y="541" type="curve" smooth="yes"/>
      <point x="447" y="431" type="line"/>
    </contour>
    <contour>
      <point x="518" y="540" type="line" smooth="yes"/>
      <point x="518" y="628"/>
      <point x="600" y="676"/>
      <point x="696" y="676" type="curve" smooth="yes"/>
      <point x="721" y="676"/>
      <point x="741" y="675"/>
      <point x="766" y="669" type="curve"/>
      <point x="754" y="661"/>
      <point x="747" y="646"/>
      <point x="747" y="631" type="curve" smooth="yes"/>
      <point x="747" y="625"/>
      <point x="749" y="603"/>
      <point x="770" y="591" type="curve"/>
      <point x="770" y="431" type="line"/>
      <point x="518" y="431" type="line"/>
    </contour>
  </outline>
</glyph>
<glyph name="suppress" format="2">
  <advance width="323"/>
  <outline>
    <contour>
      <point x="299" y="358" type="line"/>
      <point x="288" y="392" type="line"/>
      <point x="37" y="315" type="line"/>
      <point x="48" y="280" type="line"/>
    </contour>
  </outline>
</glyph>
